<?xml version="1.0" encoding="UTF-8" standalone="no"?>
<!-- Created with Inkscape (http://www.inkscape.org/) -->

<svg
   xmlns:dc="http://purl.org/dc/elements/1.1/"
   xmlns:cc="http://creativecommons.org/ns#"
   xmlns:rdf="http://www.w3.org/1999/02/22-rdf-syntax-ns#"
   xmlns:svg="http://www.w3.org/2000/svg"
   xmlns="http://www.w3.org/2000/svg"
   xmlns:xlink="http://www.w3.org/1999/xlink"
   xmlns:sodipodi="http://sodipodi.sourceforge.net/DTD/sodipodi-0.dtd"
   xmlns:inkscape="http://www.inkscape.org/namespaces/inkscape"
   width="32"
   version="1.1"
   height="32"
   viewBox="0 0 32 32"
   id="svg2"
   inkscape:version="0.91 r13725"
   sodipodi:docname="climbinggrades.svg"
   inkscape:export-filename="/home/diau/git/kf5/climbinggrades/android/climbinggrades.png"
   inkscape:export-xdpi="1285.7153"
   inkscape:export-ydpi="1285.7153">
  <sodipodi:namedview
     pagecolor="#ffffff"
     bordercolor="#666666"
     borderopacity="1"
     objecttolerance="10"
     gridtolerance="10"
     guidetolerance="10"
     inkscape:pageopacity="0"
     inkscape:pageshadow="2"
     inkscape:window-width="1680"
     inkscape:window-height="993"
     id="namedview32"
     showgrid="true"
     inkscape:zoom="16"
     inkscape:cx="21.717226"
     inkscape:cy="17.761434"
     inkscape:window-x="0"
     inkscape:window-y="0"
     inkscape:window-maximized="1"
     inkscape:current-layer="layer1">
    <inkscape:grid
       type="xygrid"
       id="grid4192" />
  </sodipodi:namedview>
  <defs
     id="defs5455">
    <linearGradient
       inkscape:collect="always"
       id="linearGradient4176">
      <stop
         style="stop-color:#fcfcfc;stop-opacity:0.260638"
         id="stop4178" />
      <stop
         offset="1"
         style="stop-color:#5ea5fb;stop-opacity:0"
         id="stop4180" />
    </linearGradient>
    <linearGradient
       inkscape:collect="always"
       xlink:href="#linearGradient4176"
       id="linearGradient4182"
       y1="515.79791"
       x1="384.57141"
       y2="537.79767"
       x2="407.57138"
       gradientUnits="userSpaceOnUse"
       gradientTransform="matrix(1 0 0 1 0.000036 0.000087)" />
    <linearGradient
       id="linearGradient4256">
      <stop
         style="stop-color:#a9cefa;stop-opacity:1"
         id="stop4258" />
      <stop
         offset="1"
         style="stop-color:#f3f9ff;stop-opacity:1"
         id="stop4260" />
    </linearGradient>
    <linearGradient
       inkscape:collect="always"
       id="linearGradient4227-0-8">
      <stop
         style="stop-color:#292c2f"
         id="stop4229-3-3" />
      <stop
         offset="1"
         style="stop-opacity:0"
         id="stop4231-90-8" />
    </linearGradient>
    <linearGradient
       id="linearGradient4232">
      <stop
         style="stop-color:#3889e9"
         id="stop4234-0" />
      <stop
         offset="1"
         style="stop-color:#5ea5fb"
         id="stop4236" />
    </linearGradient>
    <linearGradient
       inkscape:collect="always"
       xlink:href="#linearGradient4232"
       id="linearGradient3426"
       y1="545.79797"
       y2="517.79797"
       x2="0"
       gradientUnits="userSpaceOnUse" />
    <linearGradient
       inkscape:collect="always"
       xlink:href="#linearGradient4227-0-8"
       id="linearGradient4275"
       y1="527.79797"
       x1="394.57144"
       y2="538.79797"
       x2="405.57144"
       gradientUnits="userSpaceOnUse"
       gradientTransform="matrix(0.90388646,0,0,0.90388646,-345.59311,-464.34995)" />
    <style
       id="current-color-scheme"
       type="text/css">
      .ColorScheme-Text {
        color:#4d4d4d;
      }
      </style>
    <linearGradient
       inkscape:collect="always"
       xlink:href="#linearGradient4256"
       id="linearGradient4187"
       x1="397.50836"
       y1="540.27942"
       x2="397.50836"
       y2="524.21973"
       gradientUnits="userSpaceOnUse" />
    <linearGradient
       inkscape:collect="always"
       xlink:href="#linearGradient4227-0-8"
       id="linearGradient4202"
       x1="419.57144"
       y1="521.79797"
       x2="419.57144"
       y2="525.79797"
       gradientUnits="userSpaceOnUse"
       gradientTransform="matrix(0.70621469,0,0,0.70621469,-393.25569,287.49342)" />
    <linearGradient
       inkscape:collect="always"
       xlink:href="#linearGradient4227-0-8"
       id="linearGradient4227"
       x1="403.37283"
       y1="528.58392"
       x2="403.35217"
       y2="532.48401"
       gradientUnits="userSpaceOnUse" />
    <linearGradient
       inkscape:collect="always"
       xlink:href="#linearGradient4227-0-8"
       id="linearGradient4235"
       x1="400.57144"
       y1="531.54059"
       x2="400.57144"
       y2="535.46277"
       gradientUnits="userSpaceOnUse" />
    <linearGradient
       inkscape:collect="always"
       xlink:href="#linearGradient4227-0-8"
       id="linearGradient4243"
       x1="397.57144"
       y1="534.45306"
       x2="397.46094"
       y2="538.46368"
       gradientUnits="userSpaceOnUse" />
  </defs>
  <metadata
     id="metadata5458">
    <rdf:RDF>
      <cc:Work
         rdf:about="">
        <dc:format>image/svg+xml</dc:format>
        <dc:type
           rdf:resource="http://purl.org/dc/dcmitype/StillImage" />
      </cc:Work>
    </rdf:RDF>
  </metadata>
  <g
     inkscape:label="Capa 1"
     inkscape:groupmode="layer"
     id="layer1"
     transform="matrix(1 0 0 1 -384.57143 -515.798)">
    <circle
       cx="400.57138"
       cy="531.79791"
       style="fill:url(#linearGradient3426);stroke-width:4"
       id="path3377"
       r="13.999958" />
    <path
       style="shape-rendering:auto;color-interpolation-filters:linearRGB;stroke-opacity:0.313725;fill:#fcfcfc;image-rendering:auto;fill-opacity:0.058824;text-rendering:auto;color:#000000;color-rendering:auto;color-interpolation:sRGB"
       id="rect4160"
       d="M 14 4.1699219 A 11.999958 11.999958 0 0 0 13 4.390625 L 13 8 L 9 8 L 9 6.2714844 A 11.999958 11.999958 0 0 0 8 7.0742188 L 8 8 L 7.0722656 8 A 11.999958 11.999958 0 0 0 6.265625 9 L 8 9 L 8 13 L 4.3945312 13 A 11.999958 11.999958 0 0 0 4.1816406 14 L 8 14 L 8 18 L 4.1699219 18 A 11.999958 11.999958 0 0 0 4.390625 19 L 8 19 L 8 23 L 6.2714844 23 A 11.999958 11.999958 0 0 0 7.0742188 24 L 8 24 L 8 24.927734 A 11.999958 11.999958 0 0 0 9 25.734375 L 9 24 L 13 24 L 13 27.603516 A 11.999958 11.999958 0 0 0 14 27.818359 L 14 24 L 18 24 L 18 27.830078 A 11.999958 11.999958 0 0 0 19 27.609375 L 19 24 L 23 24 L 23 25.728516 A 11.999958 11.999958 0 0 0 24 24.925781 L 24 24 L 24.927734 24 A 11.999958 11.999958 0 0 0 25.734375 23 L 24 23 L 24 19 L 27.603516 19 A 11.999958 11.999958 0 0 0 27.818359 18 L 24 18 L 24 14 L 27.830078 14 A 11.999958 11.999958 0 0 0 27.609375 13 L 24 13 L 24 9 L 25.728516 9 A 11.999958 11.999958 0 0 0 24.925781 8 L 24 8 L 24 7.0722656 A 11.999958 11.999958 0 0 0 23 6.265625 L 23 8 L 19 8 L 19 4.3945312 A 11.999958 11.999958 0 0 0 18 4.1816406 L 18 8 L 14 8 L 14 4.1699219 z M 9 9 L 13 9 L 13 13 L 9 13 L 9 9 z M 14 9 L 18 9 L 18 13 L 14 13 L 14 9 z M 19 9 L 23 9 L 23 13 L 19 13 L 19 9 z M 9 14 L 13 14 L 13 18 L 9 18 L 9 14 z M 14 14 L 18 14 L 18 18 L 14 18 L 14 14 z M 19 14 L 23 14 L 23 18 L 19 18 L 19 14 z M 9 19 L 13 19 L 13 23 L 9 23 L 9 19 z M 14 19 L 18 19 L 18 23 L 14 23 L 14 19 z M 19 19 L 23 19 L 23 23 L 19 23 L 19 19 z "
       transform="matrix(1 0 0 1 384.57143 515.798)" />
    <circle
       cx="400.57144"
       cy="531.79797"
       style="fill:url(#linearGradient4182);stroke-width:4"
       r="13.999958"
       id="circle4174" />
    <ellipse
       cx="400.57138"
       cy="531.79791"
       style="fill:url(#linearGradient3426);stroke-width:4"
       id="ellipse4233" />
    <path
       style="fill:#ffffff;opacity:0.2;stroke-width:3.42857"
       id="circle4238"
       d="M 16 4 A 11.999958 11.999958 0 0 0 4 16 A 11.999958 11.999958 0 0 0 16 28 A 11.999958 11.999958 0 0 0 28 16 A 11.999958 11.999958 0 0 0 16 4 z M 16 5 A 10.999958 10.999958 0 0 1 27 16 A 10.999958 10.999958 0 0 1 16 27 A 10.999958 10.999958 0 0 1 5 16 A 10.999958 10.999958 0 0 1 16 5 z "
       transform="matrix(1 0 0 1 384.57143 515.798)" />
    <path
       style="opacity:0.332;fill:url(#linearGradient4275);fill-rule:evenodd"
       d="M 24.582031 12.71875 L 12.847656 24.453125 L 17.349609 28.957031 A 12.654373 12.654373 0 0 0 29.087891 17.195312 L 24.613281 12.71875 L 24.582031 12.71875 z "
       id="path4267"
       transform="translate(384.57143,515.798)" />
    <rect
       style="opacity:0.205;fill:url(#linearGradient4202);fill-opacity:1;stroke:none;stroke-width:2.40000033;stroke-linecap:round;stroke-linejoin:round;stroke-miterlimit:4;stroke-dasharray:none;stroke-opacity:1"
       id="rect4194"
       width="14.124293"
       height="2.8248589"
       x="-99.773033"
       y="655.99481"
       transform="matrix(0.70710678,-0.70710678,0.70710678,0.70710678,0,0)" />
    <path
       style="color:#4d4d4d;fill:url(#linearGradient4187);fill-opacity:1;stroke:none"
       d="m 403.35133,522.70191 -11.73952,11.73952 0.97829,0.97829 3.91317,3.91317 0.97829,0.97829 11.73952,-11.73952 -0.97829,-0.97829 -3.91317,-3.91317 -0.97829,-0.97829 z m 0,1.95659 3.91317,3.91317 -0.97829,0.97829 -1.95659,-1.95659 -0.97829,0.9783 1.95658,1.95659 -1.95658,1.95658 -1.95659,-1.95658 -0.9783,0.97829 1.95659,1.95659 -1.95659,1.95658 -1.95658,-1.95658 -0.97829,0.97829 1.95659,1.95658 -1.95659,1.95659 -3.91317,-3.91317 9.78293,-9.78293 z"
       id="path4178"
       inkscape:connector-curvature="0" />
    <path
       style="color:#4d4d4d;fill:url(#linearGradient4227);fill-opacity:1;stroke:none;opacity:0.25"
       d="m 403.35073,528.57144 0,3.91406 1.95703,-1.95703 -1.95703,-1.95703 z"
       id="path4219" />
    <path
       style="color:#4d4d4d;fill:url(#linearGradient4235);fill-opacity:1;stroke:none;opacity:0.25"
       d="m 400.41713,531.50698 0,3.91211 1.95508,-1.95507 -1.95508,-1.95704 z"
       id="path4217" />
    <path
       style="color:#4d4d4d;fill:url(#linearGradient4243);fill-opacity:1;stroke:none;opacity:0.25"
       d="m 397.48159,534.44058 0,3.91406 1.95703,-1.95703 -1.95703,-1.95703 z"
       id="path4204" />
    <rect
       style="opacity:0.20499998;fill:#ff00ff;fill-opacity:0.19607843;stroke:none;stroke-width:2.40000033;stroke-linecap:round;stroke-linejoin:round;stroke-miterlimit:4;stroke-dasharray:none;stroke-opacity:1"
       id="rect4206"
       width="8.21875"
       height="12.09375"
       x="389.35269"
       y="530.36047" />
  </g>
</svg>
