<?xml version="1.0" encoding="UTF-8" standalone="no"?>
<!-- Created with Inkscape (http://www.inkscape.org/) -->

<svg
   xmlns:dc="http://purl.org/dc/elements/1.1/"
   xmlns:cc="http://creativecommons.org/ns#"
   xmlns:rdf="http://www.w3.org/1999/02/22-rdf-syntax-ns#"
   xmlns:svg="http://www.w3.org/2000/svg"
   xmlns="http://www.w3.org/2000/svg"
   xmlns:xlink="http://www.w3.org/1999/xlink"
   xmlns:sodipodi="http://sodipodi.sourceforge.net/DTD/sodipodi-0.dtd"
   xmlns:inkscape="http://www.inkscape.org/namespaces/inkscape"
   width="32"
   version="1.1"
   height="32"
   viewBox="0 0 32 32"
   id="svg2"
   inkscape:version="0.91 r13725"
   sodipodi:docname="climbinggrades.svg"
   inkscape:export-filename="/home/diau/git/kf5/climbinggrades/src/android/res/drawable-xxxhdpi/splashscreen.9.png"
   inkscape:export-xdpi="1406.25"
   inkscape:export-ydpi="1406.25">
  <sodipodi:namedview
     pagecolor="#ffffff"
     bordercolor="#666666"
     borderopacity="1"
     objecttolerance="10"
     gridtolerance="10"
     guidetolerance="10"
     inkscape:pageopacity="0"
     inkscape:pageshadow="2"
     inkscape:window-width="1680"
     inkscape:window-height="987"
     id="namedview32"
     showgrid="true"
     inkscape:zoom="8"
     inkscape:cx="11.982402"
     inkscape:cy="22.124899"
     inkscape:window-x="0"
     inkscape:window-y="0"
     inkscape:window-maximized="1"
     inkscape:current-layer="layer1">
    <inkscape:grid
       type="xygrid"
       id="grid4192" />
  </sodipodi:namedview>
  <defs
     id="defs5455">
    <linearGradient
       inkscape:collect="always"
       id="linearGradient4176">
      <stop
         style="stop-color:#fcfcfc;stop-opacity:0.260638"
         id="stop4178" />
      <stop
         offset="1"
         style="stop-color:#5ea5fb;stop-opacity:0"
         id="stop4180" />
    </linearGradient>
    <linearGradient
       inkscape:collect="always"
       xlink:href="#linearGradient4176"
       id="linearGradient4182"
       y1="515.79791"
       x1="384.57141"
       y2="537.79767"
       x2="407.57138"
       gradientUnits="userSpaceOnUse"
       gradientTransform="translate(3.6e-5,8.7e-5)" />
    <linearGradient
       id="linearGradient4256">
      <stop
         style="stop-color:#a9cefa;stop-opacity:1"
         id="stop4258" />
      <stop
         offset="1"
         style="stop-color:#f3f9ff;stop-opacity:1"
         id="stop4260" />
    </linearGradient>
    <linearGradient
       inkscape:collect="always"
       id="linearGradient4227-0-8">
      <stop
         style="stop-color:#292c2f"
         id="stop4229-3-3" />
      <stop
         offset="1"
         style="stop-opacity:0"
         id="stop4231-90-8" />
    </linearGradient>
    <linearGradient
       id="linearGradient4232">
      <stop
         style="stop-color:#3889e9"
         id="stop4234-0" />
      <stop
         offset="1"
         style="stop-color:#5ea5fb"
         id="stop4236" />
    </linearGradient>
    <linearGradient
       inkscape:collect="always"
       xlink:href="#linearGradient4232"
       id="linearGradient3426"
       y1="545.79797"
       y2="517.79797"
       x2="0"
       gradientUnits="userSpaceOnUse" />
    <linearGradient
       inkscape:collect="always"
       xlink:href="#linearGradient4227-0-8"
       id="linearGradient4275"
       y1="527.79797"
       x1="394.57144"
       y2="538.79797"
       x2="405.57144"
       gradientUnits="userSpaceOnUse"
       gradientTransform="matrix(0.90388646,0,0,0.90388646,-345.59311,-464.34995)" />
    <style
       id="current-color-scheme"
       type="text/css">
      .ColorScheme-Text {
        color:#4d4d4d;
      }
      </style>
    <linearGradient
       inkscape:collect="always"
       xlink:href="#linearGradient4256"
       id="linearGradient4187"
       x1="397.50836"
       y1="540.27942"
       x2="397.50836"
       y2="524.21973"
       gradientUnits="userSpaceOnUse" />
    <linearGradient
       inkscape:collect="always"
       xlink:href="#linearGradient4227-0-8"
       id="linearGradient4202"
       x1="419.57144"
       y1="521.79797"
       x2="419.57144"
       y2="525.79797"
       gradientUnits="userSpaceOnUse"
       gradientTransform="matrix(0.70621469,0,0,0.70621469,-393.25569,287.49342)" />
    <linearGradient
       inkscape:collect="always"
       xlink:href="#linearGradient4227-0-8"
       id="linearGradient4227"
       x1="403.37283"
       y1="528.58392"
       x2="403.35217"
       y2="532.48401"
       gradientUnits="userSpaceOnUse" />
    <linearGradient
       inkscape:collect="always"
       xlink:href="#linearGradient4227-0-8"
       id="linearGradient4235"
       x1="400.57144"
       y1="531.54059"
       x2="400.57144"
       y2="535.46277"
       gradientUnits="userSpaceOnUse" />
    <linearGradient
       inkscape:collect="always"
       xlink:href="#linearGradient4227-0-8"
       id="linearGradient4243"
       x1="397.57144"
       y1="534.45306"
       x2="397.46094"
       y2="538.46368"
       gradientUnits="userSpaceOnUse" />
    <linearGradient
       inkscape:collect="always"
       xlink:href="#linearGradient4232"
       id="linearGradient4220"
       x1="357.44644"
       y1="530.88464"
       x2="357.44644"
       y2="497.798"
       gradientUnits="userSpaceOnUse"
       gradientTransform="matrix(0.875,0,0,0.875,87.696424,81.349788)" />
    <linearGradient
       inkscape:collect="always"
       xlink:href="#linearGradient4256"
       id="linearGradient4266"
       x1="-4.3150401"
       y1="-7.3004436"
       x2="-16.340706"
       y2="18.755167"
       gradientUnits="userSpaceOnUse"
       gradientTransform="matrix(-0.93430665,0.93430665,-0.93430665,-0.93430665,14.95282,40.86076)" />
    <linearGradient
       inkscape:collect="always"
       xlink:href="#linearGradient4256"
       id="linearGradient4274"
       x1="505.19958"
       y1="402.96286"
       x2="503.0867"
       y2="403.79135"
       gradientUnits="userSpaceOnUse"
       gradientTransform="matrix(1.3213091,0,0,1.3213091,-758.84919,-1193.7326)" />
    <linearGradient
       inkscape:collect="always"
       xlink:href="#linearGradient4227-0-8"
       id="linearGradient4326"
       x1="361.57144"
       y1="532.79797"
       x2="368.57144"
       y2="539.79797"
       gradientUnits="userSpaceOnUse"
       gradientTransform="translate(32,0)" />
    <linearGradient
       inkscape:collect="always"
       xlink:href="#linearGradient4227-0-8"
       id="linearGradient4336"
       x1="360.57144"
       y1="524.3255"
       x2="366.57144"
       y2="531.26398"
       gradientUnits="userSpaceOnUse"
       gradientTransform="translate(32,0)" />
    <linearGradient
       inkscape:collect="always"
       xlink:href="#linearGradient4227-0-8"
       id="linearGradient4346"
       x1="376.57144"
       y1="539.79797"
       x2="381.57144"
       y2="544.79797"
       gradientUnits="userSpaceOnUse"
       gradientTransform="translate(32,0)" />
    <linearGradient
       inkscape:collect="always"
       xlink:href="#linearGradient4227-0-8"
       id="linearGradient4356"
       x1="370.57144"
       y1="524.79797"
       x2="377.57144"
       y2="533.79797"
       gradientUnits="userSpaceOnUse"
       gradientTransform="translate(32,0)" />
    <linearGradient
       inkscape:collect="always"
       xlink:href="#linearGradient4227-0-8"
       id="linearGradient4366"
       x1="366.57144"
       y1="529.79797"
       x2="373.57144"
       y2="539.79797"
       gradientUnits="userSpaceOnUse"
       gradientTransform="translate(32,0)" />
    <linearGradient
       inkscape:collect="always"
       xlink:href="#linearGradient4232"
       id="linearGradient4445"
       gradientUnits="userSpaceOnUse"
       y1="545.79797"
       x2="0"
       y2="517.79797" />
    <linearGradient
       inkscape:collect="always"
       xlink:href="#linearGradient4227-0-8"
       id="linearGradient4276"
       x1="403.14957"
       y1="539.39954"
       x2="405.57144"
       y2="542.43079"
       gradientUnits="userSpaceOnUse" />
  </defs>
  <metadata
     id="metadata5458">
    <rdf:RDF>
      <cc:Work
         rdf:about="">
        <dc:format>image/svg+xml</dc:format>
        <dc:type
           rdf:resource="http://purl.org/dc/dcmitype/StillImage" />
        <dc:title />
      </cc:Work>
    </rdf:RDF>
  </metadata>
  <g
     inkscape:label="Capa 1"
     inkscape:groupmode="layer"
     id="layer1"
     transform="matrix(1 0 0 1 -384.57143 -515.798)">
    <ellipse
       cx="400.57138"
       cy="531.79791"
       style="fill:url(#linearGradient3426);stroke-width:4"
       id="ellipse4233" />
    <g
       id="g4432"
       transform="translate(0,-36.999932)">
      <circle
         r="13.999958"
         id="path3377"
         style="fill:url(#linearGradient4445);stroke-width:4"
         cy="531.79791"
         cx="400.57138" />
      <path
         transform="translate(384.57143,515.798)"
         d="M 14,4.1699219 A 11.999958,11.999958 0 0 0 13,4.390625 L 13,8 9,8 9,6.2714844 A 11.999958,11.999958 0 0 0 8,7.0742188 L 8,8 7.0722656,8 A 11.999958,11.999958 0 0 0 6.265625,9 L 8,9 8,13 4.3945312,13 A 11.999958,11.999958 0 0 0 4.1816406,14 L 8,14 8,18 4.1699219,18 A 11.999958,11.999958 0 0 0 4.390625,19 L 8,19 8,23 6.2714844,23 a 11.999958,11.999958 0 0 0 0.8027344,1 L 8,24 8,24.927734 a 11.999958,11.999958 0 0 0 1,0.806641 L 9,24 l 4,0 0,3.603516 a 11.999958,11.999958 0 0 0 1,0.214843 L 14,24 l 4,0 0,3.830078 a 11.999958,11.999958 0 0 0 1,-0.220703 L 19,24 l 4,0 0,1.728516 a 11.999958,11.999958 0 0 0 1,-0.802735 L 24,24 l 0.927734,0 a 11.999958,11.999958 0 0 0 0.806641,-1 L 24,23 l 0,-4 3.603516,0 a 11.999958,11.999958 0 0 0 0.214843,-1 L 24,18 l 0,-4 3.830078,0 A 11.999958,11.999958 0 0 0 27.609375,13 L 24,13 24,9 25.728516,9 A 11.999958,11.999958 0 0 0 24.925781,8 L 24,8 24,7.0722656 A 11.999958,11.999958 0 0 0 23,6.265625 L 23,8 19,8 19,4.3945312 A 11.999958,11.999958 0 0 0 18,4.1816406 L 18,8 14,8 14,4.1699219 Z M 9,9 l 4,0 0,4 -4,0 0,-4 z m 5,0 4,0 0,4 -4,0 0,-4 z m 5,0 4,0 0,4 -4,0 0,-4 z m -10,5 4,0 0,4 -4,0 0,-4 z m 5,0 4,0 0,4 -4,0 0,-4 z m 5,0 4,0 0,4 -4,0 0,-4 z m -10,5 4,0 0,4 -4,0 0,-4 z m 5,0 4,0 0,4 -4,0 0,-4 z m 5,0 4,0 0,4 -4,0 0,-4 z"
         id="rect4160"
         style="color:#000000;color-interpolation:sRGB;color-interpolation-filters:linearRGB;fill:#fcfcfc;fill-opacity:0.05882401;stroke-opacity:0.31372501;color-rendering:auto;image-rendering:auto;shape-rendering:auto;text-rendering:auto"
         inkscape:connector-curvature="0" />
      <circle
         id="circle4174"
         r="13.999958"
         style="fill:url(#linearGradient4182);stroke-width:4"
         cy="531.79797"
         cx="400.57144" />
      <path
         transform="translate(384.57143,515.798)"
         d="M 16,4 A 11.999958,11.999958 0 0 0 4,16 11.999958,11.999958 0 0 0 16,28 11.999958,11.999958 0 0 0 28,16 11.999958,11.999958 0 0 0 16,4 Z m 0,1 A 10.999958,10.999958 0 0 1 27,16 10.999958,10.999958 0 0 1 16,27 10.999958,10.999958 0 0 1 5,16 10.999958,10.999958 0 0 1 16,5 Z"
         id="circle4238"
         style="opacity:0.2;fill:#ffffff;stroke-width:3.42857003"
         inkscape:connector-curvature="0" />
      <path
         transform="translate(384.57143,515.798)"
         id="path4267"
         d="m 24.582031,12.71875 -11.734375,11.734375 4.501953,4.503906 A 12.654373,12.654373 0 0 0 29.087891,17.195312 l -4.47461,-4.476562 -0.03125,0 z"
         style="opacity:0.33200001;fill:url(#linearGradient4275);fill-rule:evenodd"
         inkscape:connector-curvature="0" />
      <rect
         transform="matrix(0.70710678,-0.70710678,0.70710678,0.70710678,0,0)"
         y="655.99481"
         x="-99.773033"
         height="2.8248589"
         width="14.124293"
         id="rect4194"
         style="opacity:0.20499998;fill:url(#linearGradient4202);fill-opacity:1;stroke:none;stroke-width:2.40000033;stroke-linecap:round;stroke-linejoin:round;stroke-miterlimit:4;stroke-dasharray:none;stroke-opacity:1" />
      <path
         inkscape:connector-curvature="0"
         id="path4178"
         d="m 403.35133,522.70191 -11.73952,11.73952 0.97829,0.97829 3.91317,3.91317 0.97829,0.97829 11.73952,-11.73952 -0.97829,-0.97829 -3.91317,-3.91317 -0.97829,-0.97829 z m 0,1.95659 3.91317,3.91317 -0.97829,0.97829 -1.95659,-1.95659 -0.97829,0.9783 1.95658,1.95659 -1.95658,1.95658 -1.95659,-1.95658 -0.9783,0.97829 1.95659,1.95659 -1.95659,1.95658 -1.95658,-1.95658 -0.97829,0.97829 1.95659,1.95658 -1.95659,1.95659 -3.91317,-3.91317 9.78293,-9.78293 z"
         style="color:#4d4d4d;fill:url(#linearGradient4187);fill-opacity:1;stroke:none" />
      <path
         id="path4219"
         d="m 403.35073,528.57144 0,3.91406 1.95703,-1.95703 -1.95703,-1.95703 z"
         style="color:#4d4d4d;opacity:0.25;fill:url(#linearGradient4227);fill-opacity:1;stroke:none"
         inkscape:connector-curvature="0" />
      <path
         id="path4217"
         d="m 400.41713,531.50698 0,3.91211 1.95508,-1.95507 -1.95508,-1.95704 z"
         style="color:#4d4d4d;opacity:0.25;fill:url(#linearGradient4235);fill-opacity:1;stroke:none"
         inkscape:connector-curvature="0" />
      <path
         id="path4204"
         d="m 397.48159,534.44058 0,3.91406 1.95703,-1.95703 -1.95703,-1.95703 z"
         style="color:#4d4d4d;opacity:0.25;fill:url(#linearGradient4243);fill-opacity:1;stroke:none"
         inkscape:connector-curvature="0" />
      <rect
         y="530.36047"
         x="389.35269"
         height="12.09375"
         width="8.21875"
         id="rect4206"
         style="opacity:0.20499998;fill:#ff00ff;fill-opacity:0.19607843;stroke:none;stroke-width:2.40000033;stroke-linecap:round;stroke-linejoin:round;stroke-miterlimit:4;stroke-dasharray:none;stroke-opacity:1" />
    </g>
    <path
       sodipodi:nodetypes="cccccccccccccccccccccccccccccccccscccccccccccccccccccccccccccccccccccccccccccccccccccccsccccccccscccscccccccccccccccccccccccccccccccccccccccccccccccccccccccccccccccccccccccccsccccccccccccccccccccsccccccccccccsccccccccccccccccccccccccccccccccccccccccc"
       inkscape:connector-curvature="0"
       id="path4222"
       d="m 374.51861,488.15953 c -0.16523,0.005 -0.23201,0.022 -0.20312,0.0195 -0.0577,0.005 -0.15131,0.0104 -0.27735,0.0312 -0.14152,0.0235 -0.24916,0.0533 -0.32812,0.0742 -0.0472,0.0125 -0.13496,0.0334 -0.25781,0.0762 l 0,-0.002 c -0.13609,0.0474 -0.23743,0.0974 -0.31055,0.13086 -0.0496,0.0227 -0.13585,0.0587 -0.24805,0.12109 l 0,-0.002 c -0.13297,0.0739 -0.22326,0.14099 -0.28515,0.1836 0.0541,-0.0372 -0.01,-0.0103 -0.16211,0.10742 -0.14453,0.11148 -0.16479,0.1404 -0.0742,0.0664 l 0,-0.002 c 0.0899,-0.0734 0.0547,-0.0576 -0.0859,0.0645 -0.14082,0.12232 -0.18227,0.18348 -0.14844,0.15039 -0.0548,0.0536 -0.13054,0.12591 -0.2168,0.22656 -0.0769,0.0897 -0.13682,0.17056 -0.18554,0.23828 -0.0395,0.0549 -0.10098,0.13654 -0.17188,0.25586 -0.0719,0.12089 -0.11717,0.22125 -0.15039,0.29102 -0.0294,0.0617 -0.067,0.13944 -0.10547,0.23828 -0.0495,0.12722 -0.0789,0.23343 -0.10156,0.3125 -0.0166,0.0581 -0.0463,0.14952 -0.0723,0.27929 -0.0243,0.12132 -0.0332,0.2172 -0.041,0.28321 -0.009,0.0797 -0.0236,0.18399 -0.0273,0.31445 -0.004,0.12745 0.004,0.22699 0.008,0.29883 0.004,0.0751 0.01,0.17037 0.0254,0.28515 0.0185,0.13476 0.0442,0.24446 0.0644,0.33008 0.0152,0.0646 0.0341,0.15612 0.0703,0.26953 0.0183,0.0573 0.0359,0.0957 0.0547,0.14453 l -1.91016,9.68946 -0.004,0.0781 c -0.003,0.0733 5.7e-4,0.0466 0.002,0.0742 l -0.004,0.0195 0,0.0996 c 0,0.16148 0.0123,0.23616 0.0117,0.22266 0.005,0.11683 0.0131,0.25093 0.0312,0.40234 0.0159,0.13291 0.0354,0.24065 0.0508,0.32422 0.0154,0.0837 0.0357,0.1946 0.0703,0.33203 0.0364,0.14444 0.0742,0.25789 0.10156,0.3418 0.0267,0.0822 0.0611,0.1945 0.11719,0.33398 0.0516,0.12842 0.0987,0.22133 0.12891,0.28516 0.0436,0.0921 0.0968,0.20362 0.16796,0.33008 0.0631,0.1121 0.11907,0.19779 0.16016,0.26172 0.0557,0.0867 0.12531,0.19609 0.21875,0.32031 0.078,0.10369 0.14401,0.17872 0.18945,0.23242 0.0672,0.0795 0.14874,0.17585 0.25391,0.28321 0.10436,0.10657 0.19352,0.18227 0.25391,0.23632 0.0585,0.0525 0.14106,0.1306 0.25586,0.22071 0.11878,0.0932 0.2251,0.16459 0.31445,0.22461 l 0.002,0 c -0.006,-0.004 0.05,0.0462 0.18555,0.1289 0.13167,0.0804 0.15905,0.089 0.0742,0.0391 -0.0713,-0.042 -0.0439,-0.0176 0.0918,0.0586 0.15128,0.0849 0.23601,0.11606 0.23828,0.11719 0.0793,0.0394 0.18529,0.0935 0.32226,0.15039 0.12627,0.0524 0.22391,0.0835 0.28711,0.10547 0.10449,0.0364 0.22919,0.0795 0.37891,0.11914 0.13005,0.0345 0.2239,0.049 0.27929,0.0605 0.0974,0.0202 0.22609,0.051 0.39063,0.0723 0.12877,0.0166 0.23189,0.022 0.30859,0.0273 0.0981,0.007 0.22033,0.0156 0.36524,0.0156 0.14491,2e-5 0.26711,-0.009 0.36523,-0.0156 0.0767,-0.005 0.17983,-0.0107 0.3086,-0.0273 0.16454,-0.0212 0.29318,-0.0521 0.39062,-0.0723 0.0554,-0.0115 0.14925,-0.026 0.2793,-0.0605 0.14972,-0.0397 0.27441,-0.0828 0.3789,-0.11914 0.0632,-0.022 0.16084,-0.0531 0.28711,-0.10547 0.13697,-0.0568 0.24302,-0.11102 0.32227,-0.15039 0.002,-0.001 0.087,-0.0323 0.23828,-0.11719 0.13572,-0.0762 0.16307,-0.10058 0.0918,-0.0586 -0.0848,0.0499 -0.0575,0.0413 0.0742,-0.0391 0.13549,-0.0827 0.19174,-0.13306 0.18555,-0.1289 l 0.002,0 c 0.0894,-0.06 0.19567,-0.1314 0.31445,-0.22461 0.11574,-0.0908 0.19919,-0.17018 0.25781,-0.22266 0.0603,-0.0539 0.14843,-0.12865 0.25196,-0.23437 0.10517,-0.10736 0.18667,-0.20374 0.2539,-0.28321 0.0454,-0.0537 0.11144,-0.12873 0.18946,-0.23242 0.0934,-0.12422 0.16304,-0.23359 0.21875,-0.32031 0.0411,-0.0639 0.097,-0.14962 0.16015,-0.26172 0.0712,-0.12646 0.12438,-0.23798 0.16797,-0.33008 0.0302,-0.0638 0.0773,-0.15674 0.12891,-0.28516 0.0561,-0.13948 0.0904,-0.25182 0.11718,-0.33398 0.0273,-0.0839 0.0651,-0.19735 0.10157,-0.3418 0.0346,-0.13744 0.0549,-0.24837 0.0703,-0.33203 0.0154,-0.0836 0.0349,-0.19131 0.0508,-0.32422 0.0182,-0.15142 0.0264,-0.28551 0.0312,-0.40234 -7.7e-4,0.0135 0.0116,-0.0612 0.0116,-0.22266 l 0,-0.0996 -0.004,-0.0195 c 10e-4,-0.0276 0.005,-8.9e-4 0.002,-0.0742 l -0.004,-0.0781 -0.5797,-2.97721 c -0.22365,-0.74309 -1.88101,0.0482 -1.76171,0.52734 l 0.008,0.0586 0.38086,-0.0703 c 0.33961,-0.0614 0.64783,0.16546 0.6914,0.50782 0.0436,0.34235 -0.19359,0.66716 -0.5332,0.72851 l -0.35742,0.0645 0.15391,1.36003 c -9.6e-4,0.0153 -0.002,-0.0211 -0.002,0.0488 l 0,0.0918 c -1.1e-4,10e-4 1.2e-4,0.002 0,0.004 -0.002,0.0237 -0.003,0.001 -0.006,0.0645 -0.004,0.10167 -0.008,0.18602 -0.0156,0.25 -0.005,0.0441 -0.0185,0.10852 -0.0352,0.19922 -0.0179,0.0972 -0.0289,0.16686 -0.0391,0.20703 -0.0107,0.0423 -0.0343,0.11047 -0.0664,0.20898 -0.0327,0.10036 -0.0549,0.17078 -0.0703,0.20899 -0.0117,0.0291 -0.0397,0.0864 -0.082,0.17578 -0.0421,0.089 -0.0745,0.15701 -0.10156,0.20508 -0.0183,0.0325 -0.0529,0.0845 -0.10157,0.16015 -0.0575,0.0894 -0.10015,0.1558 -0.13281,0.19922 -0.0193,0.0256 -0.0598,0.0725 -0.11914,0.14258 -0.0657,0.0777 -0.11676,0.13742 -0.15625,0.17773 -0.0256,0.0262 -0.0776,0.0722 -0.15625,0.14258 l 0,0.002 -0.002,0 c -0.0774,0.0693 -0.1275,0.11416 -0.15625,0.13672 -0.0451,0.0354 -0.11235,0.0816 -0.19726,0.13867 -0.10569,0.0711 -0.14257,0.0999 -0.11329,0.082 0.0927,-0.0566 0.0772,-0.0496 -0.0469,0.0234 -0.12258,0.0722 -0.14031,0.086 -0.0566,0.0391 0.0256,-0.0144 -0.0225,0.004 -0.14843,0.0664 -0.0926,0.046 -0.15822,0.0795 -0.19727,0.0957 -0.0267,0.0111 -0.0854,0.0303 -0.17773,0.0625 -0.0991,0.0345 -0.17675,0.0609 -0.23438,0.0762 -0.0201,0.005 -0.0776,0.0172 -0.17383,0.0371 -0.11346,0.0235 -0.19366,0.0387 -0.24218,0.0449 -0.0375,0.005 -0.1011,0.009 -0.19141,0.0156 -0.0985,0.007 -0.17244,0.0117 -0.22461,0.0117 -0.0522,10e-6 -0.12608,-0.005 -0.22461,-0.0117 -0.0903,-0.006 -0.15389,-0.0108 -0.19141,-0.0156 -0.0485,-0.006 -0.12872,-0.0214 -0.24218,-0.0449 -0.0963,-0.0199 -0.15369,-0.0318 -0.17383,-0.0371 -0.0576,-0.0153 -0.13526,-0.0417 -0.23438,-0.0762 -0.0924,-0.0322 -0.15098,-0.0514 -0.17773,-0.0625 -0.0391,-0.0162 -0.10463,-0.0497 -0.19727,-0.0957 -0.12596,-0.0625 -0.17402,-0.0808 -0.14843,-0.0664 0.0836,0.0469 0.0659,0.0331 -0.0566,-0.0391 -0.1241,-0.073 -0.13954,-0.08 -0.0469,-0.0234 0.0293,0.0179 -0.008,-0.011 -0.11329,-0.082 l -0.002,0 c -0.0841,-0.0565 -0.15051,-0.10351 -0.19531,-0.13867 -0.0288,-0.0226 -0.0788,-0.0674 -0.15625,-0.13672 l -0.002,0 0,-0.002 c -0.0787,-0.0704 -0.1306,-0.11638 -0.15625,-0.14258 -0.0395,-0.0403 -0.0905,-0.10004 -0.15625,-0.17773 -0.0593,-0.0701 -0.0998,-0.11693 -0.11914,-0.14258 -0.0327,-0.0434 -0.0754,-0.10978 -0.13281,-0.19922 -0.0487,-0.0757 -0.0833,-0.12764 -0.10156,-0.16015 -0.0271,-0.0481 -0.0595,-0.11612 -0.10157,-0.20508 -0.0423,-0.0894 -0.0703,-0.14668 -0.082,-0.17578 -0.0154,-0.0382 -0.0376,-0.10864 -0.0703,-0.20899 -0.0321,-0.0985 -0.0557,-0.16665 -0.0664,-0.20898 -0.0101,-0.0402 -0.0212,-0.10978 -0.0391,-0.20703 -0.0167,-0.0907 -0.0299,-0.15514 -0.0352,-0.19922 -0.008,-0.064 -0.0113,-0.14833 -0.0156,-0.25 -0.003,-0.0631 -0.004,-0.0409 -0.006,-0.0645 l 0,-0.004 0,-0.0918 c 4.7e-4,-0.0699 -8.9e-4,-0.0336 -0.002,-0.0488 l 1.99644,-10.11913 -0.15039,-0.30469 c 0.0359,0.0728 0.028,0.0512 -0.0273,-0.0781 l 0,-0.002 c -0.0274,-0.0639 -0.0457,-0.11044 -0.0547,-0.13867 -0.005,-0.0149 -0.0159,-0.052 -0.0312,-0.11718 -0.0169,-0.072 -0.0259,-0.11816 -0.0293,-0.14258 -0.003,-0.0224 -0.006,-0.0627 -0.01,-0.125 -0.004,-0.0722 -0.004,-0.11462 -0.004,-0.13086 6.3e-4,-0.0218 0.003,-0.0675 0.0117,-0.13867 0.008,-0.0704 0.0149,-0.10971 0.0176,-0.12305 10e-4,-0.007 0.0115,-0.0473 0.0332,-0.12305 0.0208,-0.0726 0.0351,-0.1165 0.043,-0.13672 0.007,-0.018 0.0222,-0.0536 0.0469,-0.10547 0.0341,-0.0716 0.0557,-0.11232 0.0644,-0.12695 0.005,-0.008 0.0308,-0.0454 0.0781,-0.11133 0.0358,-0.0497 0.0618,-0.0842 0.0801,-0.10547 0.0109,-0.0128 0.0424,-0.0455 0.0957,-0.0976 0.10639,-0.10408 0.12584,-0.12333 0.0625,-0.0684 -0.10118,0.0879 -0.0911,0.081 0.0391,-0.0254 l 0,-0.002 c 0.12801,-0.10462 0.13729,-0.11307 0.0312,-0.0312 -0.0781,0.0602 -0.0586,0.0491 0.0723,-0.041 0.0735,-0.0506 0.11617,-0.0771 0.125,-0.082 l 0,-0.002 c 0.004,-0.002 0.0375,-0.0187 0.10742,-0.0508 0.074,-0.0339 0.11913,-0.0512 0.13476,-0.0566 l 0,-0.002 c -2.7e-4,10e-5 0.0357,-0.009 0.11329,-0.0293 0.0783,-0.0208 0.12611,-0.032 0.14453,-0.0351 0.006,-10e-4 0.0454,-0.005 0.12109,-0.0117 0.12666,-0.011 0.15707,-0.0137 0.0898,-0.0117 -0.1193,0.003 -0.1047,0.004 0.0449,0.004 0.0257,0 0.0702,0.002 0.13477,0.008 0.0757,0.007 0.11467,0.0107 0.12109,0.0117 0.0184,0.003 0.0662,0.0144 0.14453,0.0351 0.0776,0.0206 0.11355,0.0294 0.11328,0.0293 l 0,0.002 c 0.0156,0.005 0.0607,0.0227 0.13477,0.0566 0.07,0.0321 0.10351,0.0486 0.10742,0.0508 l 0,0.002 c 0.009,0.005 0.0515,0.0314 0.125,0.082 0.13087,0.0901 0.15028,0.10125 0.0723,0.041 -0.106,-0.0818 -0.0967,-0.0734 0.0312,0.0312 l 0,0.002 c 0.13017,0.10635 0.1402,0.11327 0.0391,0.0254 -0.0633,-0.055 -0.0439,-0.0357 0.0625,0.0684 0.0532,0.0521 0.0847,0.0849 0.0957,0.0977 0.0183,0.0213 0.0443,0.0558 0.0801,0.10546 0.0474,0.0659 0.0736,0.10365 0.0781,0.11133 0.009,0.0146 0.0302,0.0553 0.0644,0.12696 0.0247,0.0519 0.0399,0.0875 0.0469,0.10546 0.008,0.0202 0.0222,0.0641 0.043,0.13672 0.0217,0.0757 0.0319,0.11638 0.0332,0.12305 0.003,0.0133 0.009,0.0527 0.0176,0.12305 0.008,0.0711 0.0111,0.11685 0.0117,0.13867 4.7e-4,0.0162 1.8e-4,0.0587 -0.004,0.13086 -0.003,0.0623 -0.007,0.10265 -0.01,0.125 -0.002,0.0194 -0.0124,0.0643 -0.0234,0.11328 0.32942,-0.0918 0.66976,-0.13841 1.01172,-0.13867 0.34008,0.001 0.67842,0.0487 1.00586,0.14062 0.003,-0.0429 0.01,-0.0964 0.0117,-0.13086 0.004,-0.0718 0.0113,-0.17137 0.008,-0.29882 -0.004,-0.13046 -0.0179,-0.23472 -0.0273,-0.31446 -0.008,-0.066 -0.0167,-0.16188 -0.041,-0.2832 -0.026,-0.12977 -0.0556,-0.22124 -0.0723,-0.2793 -0.0226,-0.0791 -0.0521,-0.18528 -0.10157,-0.3125 -0.0384,-0.0988 -0.0761,-0.17662 -0.10546,-0.23828 -0.0332,-0.0698 -0.0785,-0.17012 -0.15039,-0.29101 -0.0709,-0.11932 -0.13241,-0.20096 -0.17188,-0.25586 -0.0487,-0.0677 -0.10864,-0.14864 -0.18555,-0.23829 -0.0863,-0.10065 -0.16195,-0.17294 -0.21679,-0.22656 0.0338,0.0331 -0.008,-0.0281 -0.14844,-0.15039 -0.14053,-0.1222 -0.17579,-0.13795 -0.0859,-0.0645 l 0,0.002 c 0.0906,0.074 0.0703,0.0451 -0.0742,-0.0664 -0.15257,-0.11769 -0.21624,-0.14467 -0.16211,-0.10742 -0.0619,-0.0426 -0.15219,-0.10972 -0.28516,-0.1836 l 0,0.002 c -0.1122,-0.0624 -0.19842,-0.0983 -0.24804,-0.12109 -0.0731,-0.0335 -0.17446,-0.0835 -0.31055,-0.13086 l 0,0.002 c -0.12285,-0.0428 -0.21061,-0.0637 -0.25781,-0.0762 -0.079,-0.0209 -0.18661,-0.0508 -0.32813,-0.0742 -0.12604,-0.0209 -0.21961,-0.0264 -0.27734,-0.0312 -0.0826,-0.007 -0.18474,-0.0156 -0.30664,-0.0156 0.10015,-2e-5 0.0652,-0.009 -0.10352,-0.004 z"
       style="color:#000000;font-style:normal;font-variant:normal;font-weight:normal;font-stretch:normal;font-size:medium;line-height:normal;font-family:sans-serif;text-indent:0;text-align:start;text-decoration:none;text-decoration-line:none;text-decoration-style:solid;text-decoration-color:#000000;letter-spacing:normal;word-spacing:normal;text-transform:none;direction:ltr;block-progression:tb;writing-mode:lr-tb;baseline-shift:baseline;text-anchor:start;white-space:normal;clip-rule:nonzero;display:inline;overflow:visible;visibility:visible;opacity:1;isolation:auto;mix-blend-mode:normal;color-interpolation:sRGB;color-interpolation-filters:linearRGB;solid-color:#000000;solid-opacity:1;fill:#000000;fill-opacity:1;fill-rule:evenodd;stroke:none;stroke-width:2;stroke-linecap:butt;stroke-linejoin:miter;stroke-miterlimit:4;stroke-dasharray:none;stroke-dashoffset:0;stroke-opacity:1;color-rendering:auto;image-rendering:auto;shape-rendering:auto;text-rendering:auto;enable-background:accumulate" />
    <rect
       transform="matrix(0.9605705,0.27803654,-0.27803654,0.9605705,0,0)"
       rx="1.0390625"
       ry="0.9183414"
       y="367.85507"
       x="498.14856"
       height="11.15625"
       width="2.078125"
       id="rect4224"
       style="fill:#ff00ff;fill-opacity:1;stroke-width:2;stroke-linecap:round;stroke-linejoin:bevel;stroke-miterlimit:4;stroke-dasharray:none" />
    <rect
       style="fill:url(#linearGradient4220);fill-opacity:1;stroke-width:2;stroke-linecap:round;stroke-linejoin:bevel;stroke-miterlimit:4;stroke-dasharray:none"
       id="rect4212"
       width="28"
       height="28"
       x="386.57144"
       y="517.79797"
       rx="1.7500103"
       ry="1.7500231" />
    <path
       style="fill:#fcfcfc;fill-opacity:0.18181817;stroke-width:2;stroke-linecap:round;stroke-linejoin:bevel;stroke-miterlimit:4;stroke-dasharray:none"
       d="M 4.203125 3 C 3.536585 3 3 3.578415 3 4.296875 L 3 8 L 3 9 L 3 13 L 3 14 L 3 18 L 3 19 L 3 23 L 3 24 L 3 27.703125 C 3 28.421595 3.536585 29 4.203125 29 L 8 29 L 27.796875 29 C 28.463405 29 29 28.421595 29 27.703125 L 29 4.296875 C 29 3.578415 28.463405 3 27.796875 3 L 8 3 L 4.203125 3 z M 4 4 L 8 4 L 8 8 L 4 8 L 4 4 z M 9 4 L 13 4 L 13 8 L 9 8 L 9 4 z M 14 4 L 18 4 L 18 8 L 14 8 L 14 4 z M 19 4 L 23 4 L 23 8 L 19 8 L 19 4 z M 24 4 L 28 4 L 28 8 L 24 8 L 24 4 z M 4 9 L 8 9 L 8 13 L 4 13 L 4 9 z M 9 9 L 13 9 L 13 13 L 9 13 L 9 9 z M 14 9 L 18 9 L 18 13 L 14 13 L 14 9 z M 19 9 L 23 9 L 23 13 L 19 13 L 19 9 z M 24 9 L 28 9 L 28 13 L 24 13 L 24 9 z M 4 14 L 8 14 L 8 18 L 4 18 L 4 14 z M 9 14 L 13 14 L 13 18 L 9 18 L 9 14 z M 14 14 L 18 14 L 18 18 L 14 18 L 14 14 z M 19 14 L 23 14 L 23 18 L 19 18 L 19 14 z M 24 14 L 28 14 L 28 18 L 24 18 L 24 14 z M 4 19 L 8 19 L 8 23 L 4 23 L 4 19 z M 9 19 L 13 19 L 13 23 L 9 23 L 9 19 z M 14 19 L 18 19 L 18 23 L 14 23 L 14 19 z M 19 19 L 23 19 L 23 23 L 19 23 L 19 19 z M 24 19 L 28 19 L 28 23 L 24 23 L 24 19 z M 4 24 L 8 24 L 8 28 L 4 28 L 4 24 z M 9 24 L 13 24 L 13 28 L 9 28 L 9 24 z M 14 24 L 18 24 L 18 28 L 14 28 L 14 24 z M 19 24 L 23 24 L 23 28 L 19 28 L 19 24 z M 24 24 L 28 24 L 28 28 L 24 28 L 24 24 z "
       transform="translate(384.57143,515.798)"
       id="rect4232-1" />
    <path
       style="opacity:0.32000002;fill:url(#linearGradient4326);fill-opacity:1;fill-rule:evenodd;stroke:none;stroke-width:1px;stroke-linecap:butt;stroke-linejoin:miter;stroke-opacity:1"
       d="m 391.57143,532.798 11,11 5.13282,0.0547 -11.47022,-10.78467 -1.54932,-1.15674 z"
       id="path4316"
       inkscape:connector-curvature="0"
       sodipodi:nodetypes="cccccc" />
    <path
       style="opacity:0.32300002;fill:url(#linearGradient4336);fill-opacity:1;fill-rule:evenodd;stroke:none;stroke-width:1px;stroke-linecap:butt;stroke-linejoin:miter;stroke-opacity:1"
       d="m 392.57143,531.798 -1,-4 1,-3 3,-2 4,1 3,3 2,3 1,2 -5.6875,4.75 -3.86279,-3.37827 z"
       id="path4328"
       inkscape:connector-curvature="0"
       sodipodi:nodetypes="ccccccccccc" />
    <path
       style="opacity:0.32000002;fill:url(#linearGradient4346);fill-opacity:1;fill-rule:evenodd;stroke:none;stroke-width:1px;stroke-linecap:butt;stroke-linejoin:miter;stroke-opacity:1"
       d="m 404.57143,542.32925 2.5,2.46875 6.5,0 0,-6 -3,-3.375 -1.4375,3.9375 z"
       id="path4338"
       inkscape:connector-curvature="0" />
    <path
       style="opacity:0.32000002;fill:url(#linearGradient4356);fill-opacity:1;fill-rule:evenodd;stroke:none;stroke-width:1px;stroke-linecap:butt;stroke-linejoin:miter;stroke-opacity:1"
       d="m 401.32444,522.95425 12.24699,12 0,5 -6,-5 -7,-11 z"
       id="path4348"
       inkscape:connector-curvature="0"
       sodipodi:nodetypes="cccccc" />
    <path
       style="fill:url(#linearGradient4276);fill-opacity:1;fill-rule:evenodd;stroke:none;stroke-width:1px;stroke-linecap:butt;stroke-linejoin:miter;stroke-opacity:1;opacity:0.32"
       d="m 404.57143,538.798 3,3 -2.0625,1.64062 -3.4375,-3.64062 z"
       id="path4266"
       inkscape:connector-curvature="0"
       sodipodi:nodetypes="ccccc" />
    <path
       style="opacity:0.32000002;fill:url(#linearGradient4366);fill-opacity:1;fill-rule:evenodd;stroke:none;stroke-width:1px;stroke-linecap:butt;stroke-linejoin:miter;stroke-opacity:1"
       d="m 398.43348,527.5095 10,13 -2,2 -6,-8 -3.59375,-6 z"
       id="path4358"
       inkscape:connector-curvature="0" />
    <path
       style="opacity:1;fill:#ffffff;fill-opacity:0.62424245;stroke:none;stroke-width:2;stroke-linecap:round;stroke-linejoin:bevel;stroke-miterlimit:4;stroke-dasharray:none"
       d="M 4.203125 3 C 3.536585 3 3 3.578415 3 4.296875 L 3 8 L 3 9 L 3 13 L 3 14 L 3 18 L 3 19 L 3 23 L 3 24 L 3 27.703125 C 3 28.421595 3.536585 29 4.203125 29 L 8 29 L 8 28 L 4 28 L 4 24 L 8 24 L 8 23 L 4 23 L 4 19 L 8 19 L 8 18 L 4 18 L 4 14 L 8 14 L 8 13 L 4 13 L 4 9 L 8 9 L 8 8 L 4 8 L 4 4 L 8 4 L 8 3 L 4.203125 3 z "
       transform="translate(384.57143,515.798)"
       id="rect4370" />
    <path
       inkscape:connector-curvature="0"
       style="fill:#000000;fill-opacity:0.16363639;stroke-width:2;stroke-linecap:round;stroke-linejoin:bevel;stroke-miterlimit:4;stroke-dasharray:none"
       d="m 388.32143,517.798 c -0.96951,0 -1.75,0.78049 -1.75,1.75 l 0,24.5 c 0,0.96951 0.78049,1.75 1.75,1.75 l 24.5,0 c 0.96951,0 1.75,-0.78049 1.75,-1.75 l 0,-24.5 c 0,-0.96951 -0.78049,-1.75 -1.75,-1.75 l -24.5,0 z m 0.45313,1 23.59375,0 c 0.66653,0 1.20312,0.57841 1.20312,1.29687 l 0,23.40625 c 0,0.71847 -0.53659,1.29688 -1.20312,1.29688 l -23.59375,0 c -0.66654,0 -1.20313,-0.57841 -1.20313,-1.29688 l 0,-23.40625 c 0,-0.71846 0.53659,-1.29687 1.20313,-1.29687 z"
       id="rect4301" />
    <path
       style="color:#000000;font-style:normal;font-variant:normal;font-weight:normal;font-stretch:normal;font-size:medium;line-height:normal;font-family:sans-serif;text-indent:0;text-align:start;text-decoration:none;text-decoration-line:none;text-decoration-style:solid;text-decoration-color:#000000;letter-spacing:normal;word-spacing:normal;text-transform:none;direction:ltr;block-progression:tb;writing-mode:lr-tb;baseline-shift:baseline;text-anchor:start;white-space:normal;clip-rule:nonzero;display:inline;overflow:visible;visibility:visible;opacity:1;isolation:auto;mix-blend-mode:normal;color-interpolation:sRGB;color-interpolation-filters:linearRGB;solid-color:#000000;solid-opacity:1;fill:url(#linearGradient4266);fill-opacity:1;fill-rule:evenodd;stroke:none;stroke-width:2;stroke-linecap:butt;stroke-linejoin:miter;stroke-miterlimit:4;stroke-dasharray:none;stroke-dashoffset:0;stroke-opacity:1;color-rendering:auto;image-rendering:auto;shape-rendering:auto;text-rendering:auto;enable-background:accumulate"
       d="M 11.755859 4.9667969 C 11.558789 4.9647969 11.403795 4.978475 11.296875 4.984375 C 11.193165 4.990375 11.043012 4.992825 10.851562 5.015625 C 10.653503 5.039525 10.489159 5.0721094 10.349609 5.0996094 L 10.347656 5.1015625 C 10.356656 5.0995625 10.256634 5.1053969 10.052734 5.1542969 C 9.8545944 5.2021969 9.8213856 5.2201 9.9472656 5.1875 C 10.053126 5.1601 10.004651 5.16315 9.8066406 5.21875 C 9.5859706 5.28075 9.4777794 5.3309712 9.4746094 5.3320312 C 9.3637094 5.3693312 9.2143331 5.4174075 9.0332031 5.4921875 C 8.8662731 5.5611875 8.7455956 5.6235894 8.6660156 5.6621094 C 8.5343856 5.7257094 8.3781019 5.8014569 8.2011719 5.9042969 C 8.0474319 5.9935969 7.9453125 6.068365 7.8828125 6.109375 C 7.7729425 6.181475 7.6248019 6.27242 7.4511719 6.40625 C 7.3153519 6.51105 7.2133387 6.6032119 7.1367188 6.6699219 C 7.0385187 6.7550219 6.91664 6.8607037 6.78125 6.9960938 C 6.64584 7.1314637 6.5405581 7.2536925 6.4550781 7.3515625 C 6.3880781 7.4278625 6.2962063 7.5301956 6.1914062 7.6660156 C 6.0574863 7.8395456 5.9667012 7.9877462 5.8945312 8.0976562 C 5.8535313 8.1601562 5.7787231 8.2622756 5.6894531 8.4160156 C 5.5866531 8.5929956 5.5109456 8.7492794 5.4472656 8.8808594 C 5.4087656 8.9604594 5.3463837 9.0811469 5.2773438 9.2480469 C 5.2024437 9.4290869 5.1544475 9.5786231 5.1171875 9.6894531 C 5.1162575 9.6924531 5.0659462 9.8008344 5.0039062 10.021484 C 4.9483062 10.219484 4.9452562 10.267929 4.9726562 10.162109 C 5.0052563 10.036259 4.9873531 10.069438 4.9394531 10.267578 C 4.8901531 10.471438 4.8848188 10.57217 4.8867188 10.5625 L 4.8847656 10.564453 C 4.8572656 10.704033 4.8246813 10.870289 4.8007812 11.068359 C 4.7774812 11.261329 4.7732781 11.413778 4.7675781 11.517578 C 4.7615781 11.624278 4.7498531 11.775203 4.7519531 11.970703 C 4.7539531 12.169273 4.7677969 12.335596 4.7792969 12.472656 C 4.7872969 12.565256 4.7964125 12.697407 4.8203125 12.867188 C 4.8491125 13.070507 4.8850625 13.238014 4.9140625 13.371094 C 4.9353625 13.469194 4.9640656 13.601885 5.0097656 13.765625 C 5.0613656 13.950295 5.1148362 14.103699 5.1601562 14.230469 C 5.1915563 14.318269 5.2348506 14.448977 5.3066406 14.617188 C 5.3845406 14.799917 5.4580356 14.937273 5.5097656 15.039062 C 5.5626656 15.142952 5.633475 15.284105 5.734375 15.453125 C 5.830475 15.613865 5.9147456 15.735575 5.9785156 15.828125 C 6.0422156 15.920625 6.125055 16.040647 6.234375 16.179688 C 6.358845 16.338168 6.4755081 16.470254 6.5800781 16.583984 C 6.5681781 16.570684 6.6264637 16.651854 6.7773438 16.802734 L 6.8710938 16.896484 L 6.8925781 16.910156 C 6.9174781 16.936856 6.8894375 16.916222 6.9609375 16.982422 L 7.0371094 17.050781 L 10.359375 19.291016 C 11.262615 19.776326 12.072742 17.488504 11.513672 17.152344 L 11.451172 17.105469 L 11.160156 17.527344 C 10.900166 17.901974 10.401586 17.976426 10.041016 17.697266 C 9.6804456 17.418106 9.5974319 16.894161 9.8574219 16.519531 L 10.132812 16.125 L 8.7167969 14.998047 C 8.7033969 14.982847 8.7390281 15.016472 8.6738281 14.951172 L 8.5878906 14.865234 C 8.5870506 14.864234 8.5859844 14.863328 8.5839844 14.861328 C 8.5636844 14.837328 8.5859969 14.856622 8.5292969 14.794922 C 8.4379969 14.696222 8.3631869 14.613775 8.3105469 14.546875 C 8.2740469 14.500975 8.22534 14.428475 8.15625 14.328125 C 8.08215 14.220585 8.028 14.144716 8 14.097656 C 7.9705 14.048156 7.9291975 13.963827 7.8671875 13.841797 C 7.8039875 13.717477 7.7576481 13.630168 7.7363281 13.580078 C 7.7201281 13.541978 7.6943906 13.462884 7.6503906 13.339844 C 7.6065906 13.217364 7.5723344 13.122934 7.5527344 13.052734 C 7.5394344 13.005234 7.5232469 12.924744 7.4980469 12.808594 C 7.4682469 12.671344 7.4455469 12.569137 7.4355469 12.498047 C 7.4295469 12.456047 7.4240625 12.374816 7.4140625 12.253906 C 7.4028625 12.119926 7.3953313 12.015966 7.3945312 11.941406 C 7.3939712 11.893006 7.39845 11.801349 7.40625 11.662109 L 7.4042969 11.660156 L 7.40625 11.658203 C 7.41425 11.521143 7.4199812 11.432706 7.4257812 11.384766 C 7.4347813 11.309566 7.4544687 11.202972 7.4804688 11.070312 C 7.5127688 10.905133 7.5203656 10.844592 7.5097656 10.888672 C 7.4760656 11.028162 7.48355 11.006426 7.53125 10.822266 C 7.57835 10.640276 7.581275 10.610412 7.546875 10.732422 C 7.536375 10.769822 7.5657 10.70718 7.625 10.53125 C 7.6685 10.40176 7.69735 10.309433 7.71875 10.257812 C 7.73335 10.222512 7.7700019 10.149543 7.8261719 10.033203 C 7.8865719 9.9083731 7.9350594 9.8122806 7.9746094 9.7441406 C 7.9887094 9.7206406 8.0302225 9.655355 8.1015625 9.546875 C 8.1855625 9.418915 8.2475694 9.3304169 8.2871094 9.2792969 C 8.3175094 9.2395969 8.3730419 9.1765075 8.4511719 9.0859375 C 8.5366719 8.9873375 8.6016406 8.9139744 8.6503906 8.8652344 C 8.6991906 8.8164344 8.7727638 8.7517956 8.8710938 8.6660156 C 8.9610937 8.5872156 9.0249131 8.5325231 9.0644531 8.5019531 C 9.1153531 8.4622531 9.2040713 8.4004563 9.3320312 8.3164062 C 9.4406012 8.2450062 9.5055369 8.2033131 9.5292969 8.1894531 C 9.5973969 8.1499531 9.6954725 8.1014256 9.8203125 8.0410156 C 9.9367225 7.9848156 10.009562 7.9481637 10.044922 7.9335938 C 10.096622 7.9121938 10.188829 7.8814906 10.318359 7.8378906 C 10.494439 7.7785906 10.554948 7.7512188 10.517578 7.7617188 C 10.395658 7.7960188 10.425522 7.7930938 10.607422 7.7460938 C 10.791572 7.6982937 10.813278 7.6909094 10.673828 7.7246094 C 10.629728 7.7353094 10.690789 7.7275125 10.855469 7.6953125 L 10.857422 7.6933594 C 10.988782 7.6675594 11.095212 7.649625 11.169922 7.640625 C 11.217922 7.634625 11.306249 7.6286938 11.443359 7.6210938 L 11.445312 7.6191406 L 11.447266 7.6210938 C 11.586576 7.6130937 11.678112 7.608875 11.726562 7.609375 C 11.801162 7.610115 11.905042 7.6178063 12.039062 7.6289062 C 12.159963 7.6390062 12.241163 7.6444906 12.283203 7.6503906 C 12.354303 7.6603906 12.45654 7.6829906 12.59375 7.7128906 C 12.70997 7.7380906 12.790451 7.7542781 12.837891 7.7675781 C 12.908191 7.7871781 13.00257 7.8194812 13.125 7.8632812 C 13.24805 7.9072812 13.327114 7.9348719 13.365234 7.9511719 C 13.415334 7.9724719 13.502643 8.0188613 13.626953 8.0820312 C 13.748973 8.1440313 13.835226 8.1852938 13.884766 8.2148438 C 13.931766 8.2429437 14.005691 8.2969538 14.113281 8.3710938 C 14.213621 8.4401938 14.285891 8.4891606 14.332031 8.5253906 C 14.399331 8.5776906 14.481048 8.6531906 14.580078 8.7441406 C 14.641878 8.8003406 14.622584 8.7786281 14.646484 8.7988281 L 14.650391 8.8027344 L 14.736328 8.8886719 C 14.801228 8.9543719 14.768003 8.9184406 14.783203 8.9316406 L 22.373047 20.251953 L 22.798828 20.396484 C 22.697268 20.361984 22.724084 20.374259 22.896484 20.443359 L 22.898438 20.445312 C 22.983738 20.479412 23.045298 20.505438 23.080078 20.523438 C 23.098678 20.532438 23.14356 20.556916 23.21875 20.603516 C 23.30185 20.655016 23.352916 20.689354 23.378906 20.708984 C 23.402606 20.727084 23.441956 20.763919 23.503906 20.818359 C 23.575106 20.882059 23.615689 20.920377 23.630859 20.935547 C 23.650659 20.956547 23.69168 21.001552 23.75 21.076172 C 23.8083 21.149472 23.837756 21.193994 23.847656 21.208984 C 23.853656 21.215984 23.881141 21.262436 23.931641 21.353516 C 23.980041 21.440816 24.008031 21.495214 24.019531 21.521484 C 24.029831 21.544884 24.048819 21.592532 24.074219 21.664062 C 24.109219 21.762862 24.127212 21.82196 24.132812 21.84375 C 24.135812 21.85585 24.146662 21.913721 24.164062 22.019531 C 24.177062 22.099431 24.1848 22.156389 24.1875 22.193359 C 24.1895 22.215459 24.190453 22.27654 24.189453 22.375 C 24.187453 22.57164 24.186359 22.606634 24.193359 22.496094 C 24.205759 22.319434 24.203441 22.335601 24.181641 22.556641 L 24.183594 22.558594 C 24.161694 22.775944 24.160994 22.792698 24.183594 22.617188 C 24.200294 22.487978 24.192497 22.516176 24.154297 22.722656 C 24.132897 22.838596 24.116881 22.903186 24.113281 22.916016 L 24.115234 22.917969 C 24.113234 22.923969 24.0978 22.971096 24.0625 23.066406 C 24.025 23.167216 23.999834 23.224491 23.990234 23.244141 L 23.992188 23.246094 C 23.992347 23.245754 23.967663 23.289449 23.914062 23.380859 C 23.860363 23.473459 23.824837 23.528718 23.810547 23.548828 C 23.805547 23.555828 23.773474 23.594885 23.708984 23.671875 C 23.600924 23.800485 23.575789 23.832238 23.636719 23.767578 C 23.745379 23.653318 23.729644 23.664918 23.589844 23.804688 C 23.565844 23.828688 23.522941 23.869118 23.457031 23.923828 C 23.379731 23.988028 23.340914 24.020301 23.333984 24.025391 C 23.313984 24.039791 23.258606 24.075116 23.166016 24.128906 C 23.074316 24.182206 23.032853 24.207131 23.033203 24.207031 L 23.03125 24.205078 C 23.01205 24.215078 22.952393 24.239844 22.851562 24.277344 C 22.756163 24.312744 22.708835 24.328478 22.703125 24.330078 L 22.701172 24.328125 C 22.688072 24.332125 22.623742 24.347741 22.507812 24.369141 C 22.301362 24.407241 22.273184 24.415038 22.402344 24.398438 C 22.577804 24.375837 22.56108 24.376538 22.34375 24.398438 L 22.341797 24.396484 C 22.120817 24.418784 22.10463 24.420603 22.28125 24.408203 C 22.39178 24.400203 22.356816 24.401297 22.160156 24.404297 C 22.061756 24.405297 22.000756 24.404204 21.978516 24.402344 C 21.941516 24.399344 21.884547 24.391806 21.804688 24.378906 C 21.698827 24.361606 21.640296 24.350556 21.628906 24.347656 C 21.606906 24.342656 21.548149 24.324062 21.449219 24.289062 C 21.377619 24.263663 21.329961 24.244675 21.306641 24.234375 C 21.280241 24.222975 21.225952 24.194884 21.138672 24.146484 C 21.047672 24.095984 21.001591 24.0676 20.994141 24.0625 C 20.978941 24.0525 20.935118 24.020591 20.861328 23.962891 C 20.787428 23.903891 20.741653 23.865523 20.720703 23.845703 C 20.705103 23.831003 20.667136 23.78995 20.603516 23.71875 C 20.578379 23.691073 20.571552 23.681862 20.554688 23.662109 A 2.2972426 2.2972426 0 0 1 18.583984 25.310547 C 18.563655 25.322347 18.545893 25.338093 18.525391 25.349609 C 18.562391 25.392809 18.606309 25.448412 18.636719 25.482422 C 18.700119 25.553222 18.785843 25.651788 18.908203 25.767578 C 19.033833 25.885738 19.143282 25.971399 19.226562 26.037109 C 19.295662 26.091309 19.393237 26.173022 19.529297 26.263672 C 19.674827 26.360572 19.789545 26.418371 19.859375 26.457031 C 19.954375 26.509831 20.081004 26.581657 20.246094 26.654297 C 20.374284 26.710697 20.481356 26.747154 20.566406 26.777344 C 20.662606 26.811544 20.798396 26.862413 20.978516 26.908203 C 21.156236 26.953403 21.290736 26.973781 21.378906 26.988281 C 21.487656 27.006081 21.619771 27.025209 21.775391 27.037109 C 21.950061 27.050509 22.088123 27.046222 22.189453 27.044922 C 22.126953 27.045572 22.22325 27.065628 22.46875 27.048828 C 22.71421 27.031728 22.762055 27.011944 22.609375 27.027344 L 22.605469 27.025391 C 22.451679 27.040891 22.499091 27.050031 22.738281 27.019531 C 22.990781 26.986931 23.075614 26.950997 22.990234 26.966797 C 23.087834 26.948797 23.234474 26.928247 23.427734 26.873047 L 23.425781 26.871094 C 23.588911 26.824594 23.701871 26.776973 23.769531 26.751953 C 23.869131 26.714953 24.012204 26.666864 24.183594 26.583984 L 24.181641 26.582031 C 24.336411 26.507231 24.436407 26.444529 24.492188 26.412109 C 24.585487 26.357809 24.715051 26.286151 24.869141 26.175781 C 25.006431 26.077581 25.09773 25.994672 25.15625 25.945312 C 25.23995 25.874712 25.345084 25.787718 25.458984 25.673828 C 25.365384 25.767428 25.405634 25.742378 25.558594 25.580078 C 25.708294 25.421028 25.755129 25.341764 25.730469 25.371094 C 25.779669 25.312494 25.862607 25.221174 25.960938 25.083984 C 26.071208 24.929804 26.143016 24.800331 26.197266 24.707031 C 26.229666 24.651231 26.292388 24.549301 26.367188 24.394531 L 26.369141 24.396484 C 26.452041 24.225054 26.500059 24.083955 26.537109 23.984375 C 26.562209 23.916875 26.60974 23.803745 26.65625 23.640625 L 26.658203 23.642578 C 26.713403 23.449298 26.733953 23.302708 26.751953 23.205078 C 26.736153 23.290378 26.770634 23.205235 26.802734 22.953125 C 26.833634 22.713935 26.826347 22.666553 26.810547 22.820312 L 26.8125 22.822266 C 26.7971 22.974836 26.814931 22.927091 26.832031 22.681641 C 26.849331 22.435791 26.831078 22.339814 26.830078 22.402344 C 26.831078 22.301064 26.835266 22.162921 26.822266 21.988281 C 26.810266 21.832631 26.789284 21.70254 26.771484 21.59375 C 26.757084 21.50555 26.738659 21.371089 26.693359 21.193359 C 26.647559 21.013239 26.59669 20.87747 26.5625 20.78125 C 26.5323 20.69615 26.49388 20.587274 26.4375 20.458984 C 26.3649 20.293874 26.294878 20.167316 26.242188 20.072266 C 26.203388 20.002466 26.145758 19.889681 26.048828 19.744141 C 25.958128 19.608091 25.876646 19.510366 25.822266 19.441406 C 25.756166 19.358506 25.671164 19.248397 25.552734 19.123047 C 25.437394 19.000237 25.338438 18.912989 25.267578 18.849609 C 25.193678 18.783209 25.098173 18.700282 24.976562 18.607422 C 24.833363 18.498802 24.706292 18.420495 24.607422 18.359375 C 24.532922 18.313275 24.430796 18.245968 24.291016 18.173828 C 24.220416 18.137428 24.166696 18.117844 24.103516 18.089844 L 16.835938 7.2519531 L 16.767578 7.1757812 C 16.701878 7.1044813 16.722412 7.1319219 16.695312 7.1074219 L 16.681641 7.0859375 L 16.587891 6.9921875 C 16.437011 6.8413175 16.355961 6.7828619 16.369141 6.7949219 C 16.255311 6.6904319 16.121261 6.5737687 15.962891 6.4492188 C 15.823851 6.3398987 15.705751 6.2570594 15.613281 6.1933594 C 15.520681 6.1295594 15.399011 6.0452887 15.238281 5.9492188 C 15.069321 5.8482687 14.928189 5.7774394 14.824219 5.7246094 C 14.722469 5.6728094 14.585054 5.5994044 14.402344 5.5214844 C 14.234144 5.4496844 14.103495 5.40642 14.015625 5.375 C 13.888845 5.3297 13.733468 5.2762694 13.548828 5.2246094 C 13.385138 5.1788094 13.25437 5.1503063 13.15625 5.1289062 C 13.0232 5.0999063 12.855704 5.0639563 12.652344 5.0351562 C 12.482584 5.0111562 12.350433 5.0018406 12.257812 4.9941406 C 12.120743 4.9826406 11.954429 4.9688969 11.755859 4.9667969 z "
       transform="translate(384.57143,515.798)"
       id="path3367" />
    <rect
       style="fill:url(#linearGradient4274);fill-opacity:1;stroke-width:2;stroke-linecap:round;stroke-linejoin:bevel;stroke-miterlimit:4;stroke-dasharray:none"
       id="rect4198"
       width="2.7458456"
       height="14.740855"
       x="-94.392067"
       y="-668.03149"
       ry="1.2134129"
       rx="1.3729228"
       transform="matrix(-0.87582744,0.48262439,-0.48262439,-0.87582744,0,0)" />
    <path
       style="color:#000000;font-style:normal;font-variant:normal;font-weight:normal;font-stretch:normal;font-size:medium;line-height:normal;font-family:sans-serif;text-indent:0;text-align:start;text-decoration:none;text-decoration-line:none;text-decoration-style:solid;text-decoration-color:#000000;letter-spacing:normal;word-spacing:normal;text-transform:none;direction:ltr;block-progression:tb;writing-mode:lr-tb;baseline-shift:baseline;text-anchor:start;white-space:normal;clip-rule:nonzero;display:inline;overflow:visible;visibility:visible;opacity:1;isolation:auto;mix-blend-mode:normal;color-interpolation:sRGB;color-interpolation-filters:linearRGB;solid-color:#000000;solid-opacity:1;fill:#000000;fill-opacity:0.1025641;fill-rule:evenodd;stroke:none;stroke-width:2;stroke-linecap:butt;stroke-linejoin:miter;stroke-miterlimit:4;stroke-dasharray:none;stroke-dashoffset:0;stroke-opacity:1;color-rendering:auto;image-rendering:auto;shape-rendering:auto;text-rendering:auto;enable-background:accumulate"
       d="M 14.083984 5.4003906 C 14.182622 5.4505622 14.296652 5.5080485 14.443359 5.5957031 C 14.604089 5.6917731 14.725759 5.7760437 14.818359 5.8398438 C 14.910829 5.9035438 15.028929 5.9863831 15.167969 6.0957031 C 15.326339 6.2202531 15.460389 6.3369162 15.574219 6.4414062 C 15.561039 6.4293462 15.642089 6.4878019 15.792969 6.6386719 L 15.886719 6.7324219 L 15.900391 6.7539062 C 15.927491 6.7784062 15.906956 6.7509656 15.972656 6.8222656 L 16.041016 6.8984375 L 23.308594 17.736328 C 23.371774 17.764328 23.425494 17.783913 23.496094 17.820312 C 23.635874 17.892452 23.738 17.959759 23.8125 18.005859 C 23.91137 18.066979 24.038441 18.145286 24.181641 18.253906 C 24.303251 18.346766 24.398756 18.429694 24.472656 18.496094 C 24.543516 18.559474 24.642472 18.646721 24.757812 18.769531 C 24.876242 18.894881 24.961244 19.004991 25.027344 19.087891 C 25.081724 19.156851 25.163206 19.254575 25.253906 19.390625 C 25.350866 19.536165 25.408466 19.64895 25.447266 19.71875 C 25.499956 19.8138 25.569978 19.940359 25.642578 20.105469 C 25.698978 20.233759 25.737378 20.342634 25.767578 20.427734 C 25.801738 20.523954 25.852638 20.659724 25.898438 20.839844 C 25.943737 21.017574 25.962162 21.152034 25.976562 21.240234 C 25.994362 21.349024 26.015344 21.479116 26.027344 21.634766 C 26.040344 21.809406 26.036156 21.947548 26.035156 22.048828 C 26.036196 21.986298 26.054409 22.082275 26.037109 22.328125 C 26.019609 22.573575 26.002178 22.62132 26.017578 22.46875 L 26.015625 22.466797 C 26.031225 22.313037 26.038712 22.360419 26.007812 22.599609 C 25.975713 22.851719 25.941231 22.936862 25.957031 22.851562 C 25.939031 22.949192 25.918481 23.095783 25.863281 23.289062 L 25.861328 23.287109 C 25.814788 23.450229 25.767288 23.563359 25.742188 23.630859 C 25.705137 23.730439 25.657119 23.871539 25.574219 24.042969 L 25.572266 24.041016 C 25.497446 24.195786 25.434744 24.297716 25.402344 24.353516 C 25.348094 24.446816 25.276286 24.576289 25.166016 24.730469 C 25.067686 24.867659 24.984747 24.958978 24.935547 25.017578 C 24.960207 24.988248 24.913372 25.067513 24.763672 25.226562 C 24.610772 25.388762 24.570463 25.413913 24.664062 25.320312 C 24.550162 25.434202 24.445028 25.521197 24.361328 25.591797 C 24.302808 25.641157 24.211509 25.724066 24.074219 25.822266 C 23.920129 25.932636 23.790566 26.004294 23.697266 26.058594 C 23.641486 26.091014 23.541489 26.153716 23.386719 26.228516 L 23.388672 26.230469 C 23.217282 26.313339 23.074209 26.361437 22.974609 26.398438 C 22.906949 26.423477 22.793989 26.471078 22.630859 26.517578 L 22.632812 26.519531 C 22.439552 26.574731 22.292912 26.595281 22.195312 26.613281 C 22.280692 26.597481 22.195859 26.633416 21.943359 26.666016 C 21.704169 26.696616 21.656757 26.687375 21.810547 26.671875 L 21.814453 26.673828 C 21.967133 26.658428 21.919288 26.678212 21.673828 26.695312 C 21.428338 26.712013 21.332031 26.692056 21.394531 26.691406 C 21.293201 26.692406 21.155139 26.696994 20.980469 26.683594 C 20.824849 26.671694 20.692734 26.652566 20.583984 26.634766 C 20.495814 26.620266 20.361314 26.599888 20.183594 26.554688 C 20.033323 26.516511 19.931157 26.477962 19.839844 26.445312 C 19.844317 26.447754 19.855217 26.45473 19.859375 26.457031 C 19.954375 26.509831 20.081004 26.581657 20.246094 26.654297 C 20.374284 26.710697 20.481356 26.747154 20.566406 26.777344 C 20.662606 26.811544 20.798396 26.862413 20.978516 26.908203 C 21.156236 26.953403 21.290736 26.973781 21.378906 26.988281 C 21.487656 27.006081 21.619771 27.025209 21.775391 27.037109 C 21.950061 27.050509 22.088123 27.046222 22.189453 27.044922 C 22.126953 27.045572 22.22325 27.065628 22.46875 27.048828 C 22.71421 27.031728 22.762055 27.011944 22.609375 27.027344 L 22.605469 27.025391 C 22.451679 27.040891 22.499091 27.050031 22.738281 27.019531 C 22.990781 26.986931 23.075614 26.950997 22.990234 26.966797 C 23.087834 26.948797 23.234474 26.928247 23.427734 26.873047 L 23.425781 26.871094 C 23.588911 26.824594 23.701871 26.776973 23.769531 26.751953 C 23.869131 26.714953 24.012204 26.666864 24.183594 26.583984 L 24.181641 26.582031 C 24.336411 26.507231 24.436407 26.444529 24.492188 26.412109 C 24.585487 26.357809 24.715051 26.286151 24.869141 26.175781 C 25.006431 26.077581 25.09773 25.994673 25.15625 25.945312 C 25.23995 25.874712 25.345084 25.787718 25.458984 25.673828 C 25.365384 25.767428 25.405634 25.742378 25.558594 25.580078 C 25.708294 25.421028 25.755129 25.341764 25.730469 25.371094 C 25.779669 25.312494 25.862607 25.221174 25.960938 25.083984 C 26.071207 24.929804 26.143016 24.800331 26.197266 24.707031 C 26.229666 24.651231 26.292388 24.549301 26.367188 24.394531 L 26.369141 24.396484 C 26.452041 24.225054 26.500059 24.083955 26.537109 23.984375 C 26.562209 23.916875 26.60974 23.803745 26.65625 23.640625 L 26.658203 23.642578 C 26.713403 23.449298 26.733953 23.302708 26.751953 23.205078 C 26.736153 23.290378 26.770634 23.205235 26.802734 22.953125 C 26.833634 22.713935 26.826347 22.666553 26.810547 22.820312 L 26.8125 22.822266 C 26.7971 22.974836 26.814931 22.927091 26.832031 22.681641 C 26.849331 22.435791 26.831078 22.339814 26.830078 22.402344 C 26.831078 22.301064 26.835266 22.162921 26.822266 21.988281 C 26.810266 21.832631 26.789284 21.70254 26.771484 21.59375 C 26.757084 21.50555 26.738659 21.371089 26.693359 21.193359 C 26.647559 21.013239 26.59669 20.87747 26.5625 20.78125 C 26.5323 20.69615 26.49388 20.587274 26.4375 20.458984 C 26.3649 20.293874 26.294878 20.167316 26.242188 20.072266 C 26.203388 20.002466 26.145758 19.889681 26.048828 19.744141 C 25.958128 19.608091 25.876646 19.510366 25.822266 19.441406 C 25.756166 19.358506 25.671164 19.248397 25.552734 19.123047 C 25.437394 19.000237 25.338438 18.912989 25.267578 18.849609 C 25.193678 18.783209 25.098173 18.700282 24.976562 18.607422 C 24.833363 18.498802 24.706292 18.420495 24.607422 18.359375 C 24.532922 18.313275 24.430796 18.245968 24.291016 18.173828 C 24.220416 18.137428 24.166696 18.117844 24.103516 18.089844 L 16.835938 7.2519531 L 16.767578 7.1757812 C 16.701878 7.1044813 16.722412 7.1319219 16.695312 7.1074219 L 16.681641 7.0859375 L 16.587891 6.9921875 C 16.437011 6.8413175 16.355961 6.7828619 16.369141 6.7949219 C 16.255311 6.6904319 16.121261 6.5737687 15.962891 6.4492188 C 15.823851 6.3398987 15.705751 6.2570594 15.613281 6.1933594 C 15.520681 6.1295594 15.399011 6.0452887 15.238281 5.9492188 C 15.069321 5.8482687 14.928189 5.7774394 14.824219 5.7246094 C 14.722469 5.6728094 14.585054 5.5994044 14.402344 5.5214844 C 14.263804 5.4623454 14.168652 5.4301382 14.083984 5.4003906 z M 10.931641 7.2558594 C 10.883191 7.2553594 10.791654 7.2595781 10.652344 7.2675781 L 10.650391 7.265625 L 10.648438 7.2675781 C 10.511327 7.2751781 10.423 7.2811094 10.375 7.2871094 C 10.30029 7.2961094 10.19386 7.3140437 10.0625 7.3398438 L 10.060547 7.3417969 C 9.8959069 7.3740969 9.8348062 7.3817938 9.8789062 7.3710938 C 10.018356 7.3373937 9.99665 7.3447781 9.8125 7.3925781 C 9.6306 7.4395781 9.6007363 7.4425031 9.7226562 7.4082031 C 9.7600262 7.3977031 9.6995175 7.425075 9.5234375 7.484375 C 9.3939075 7.527975 9.3017 7.5586781 9.25 7.5800781 C 9.21464 7.5946981 9.1418006 7.6313 9.0253906 7.6875 C 8.9005506 7.74794 8.802475 7.7964375 8.734375 7.8359375 C 8.710615 7.8497975 8.6456794 7.8914906 8.5371094 7.9628906 C 8.4091494 8.0469406 8.3204313 8.1087375 8.2695312 8.1484375 C 8.2299913 8.1790075 8.1661719 8.2337 8.0761719 8.3125 C 7.9778419 8.39828 7.9042688 8.4629187 7.8554688 8.5117188 C 7.8067187 8.5604587 7.74175 8.6338219 7.65625 8.7324219 C 7.57808 8.8229919 7.5225875 8.8860812 7.4921875 8.9257812 C 7.4526475 8.9769012 7.3906406 9.0653994 7.3066406 9.1933594 C 7.2352806 9.3018294 7.1937875 9.367125 7.1796875 9.390625 C 7.1401375 9.458765 7.09165 9.5548575 7.03125 9.6796875 C 6.97512 9.7960275 6.9384281 9.8689969 6.9238281 9.9042969 C 6.9024281 9.9559169 6.8735781 10.048244 6.8300781 10.177734 C 6.7707781 10.353704 6.7414531 10.416306 6.7519531 10.378906 C 6.7863531 10.256856 6.7834281 10.28676 6.7363281 10.46875 C 6.6886281 10.6529 6.6811437 10.674646 6.7148438 10.535156 C 6.7254438 10.491076 6.7178469 10.551617 6.6855469 10.716797 C 6.6595469 10.849457 6.6398594 10.95605 6.6308594 11.03125 C 6.6250594 11.07919 6.6193281 11.167627 6.6113281 11.304688 L 6.609375 11.306641 L 6.6113281 11.308594 C 6.6036281 11.447834 6.5990494 11.539491 6.5996094 11.587891 C 6.6004094 11.662451 6.6079406 11.766411 6.6191406 11.900391 C 6.6291406 12.021301 6.634625 12.102531 6.640625 12.144531 C 6.650625 12.215621 6.673325 12.317828 6.703125 12.455078 C 6.728325 12.571228 6.7445125 12.651719 6.7578125 12.699219 C 6.7774125 12.769419 6.8116688 12.863848 6.8554688 12.986328 C 6.8994687 13.109368 6.9252062 13.188463 6.9414062 13.226562 C 6.9627263 13.276652 7.0090656 13.363961 7.0722656 13.488281 C 7.1342756 13.610311 7.1755781 13.694641 7.2050781 13.744141 C 7.2330781 13.791201 7.2872281 13.867069 7.3613281 13.974609 C 7.4304281 14.074959 7.479125 14.147459 7.515625 14.193359 C 7.568265 14.260259 7.643075 14.342706 7.734375 14.441406 C 7.791075 14.502806 7.7687625 14.483812 7.7890625 14.507812 C 7.7910625 14.509813 7.7921288 14.510719 7.7929688 14.511719 L 7.8789062 14.597656 C 7.9441063 14.662956 7.908475 14.629331 7.921875 14.644531 L 9.3378906 15.771484 L 9.0625 16.166016 C 8.80251 16.540646 8.8855238 17.06459 9.2460938 17.34375 C 9.4336134 17.488931 9.6560331 17.534677 9.8652344 17.496094 C 9.6689909 17.207223 9.6499054 16.81855 9.8574219 16.519531 L 10.132812 16.125 L 8.7167969 14.998047 C 8.7033969 14.982847 8.7390281 15.016472 8.6738281 14.951172 L 8.5878906 14.865234 C 8.5870506 14.864234 8.5859844 14.863328 8.5839844 14.861328 C 8.5636844 14.837328 8.5859969 14.856622 8.5292969 14.794922 C 8.4379969 14.696222 8.3631869 14.613775 8.3105469 14.546875 C 8.2740469 14.500975 8.22534 14.428475 8.15625 14.328125 C 8.08215 14.220585 8.028 14.144716 8 14.097656 C 7.9705 14.048156 7.9291975 13.963827 7.8671875 13.841797 C 7.8039875 13.717477 7.7576481 13.630168 7.7363281 13.580078 C 7.7201281 13.541978 7.6943906 13.462884 7.6503906 13.339844 C 7.6065906 13.217364 7.5723344 13.122934 7.5527344 13.052734 C 7.5394344 13.005234 7.5232469 12.924744 7.4980469 12.808594 C 7.4682469 12.671344 7.4455469 12.569137 7.4355469 12.498047 C 7.4295469 12.456047 7.4240625 12.374816 7.4140625 12.253906 C 7.4028625 12.119926 7.3953313 12.015966 7.3945312 11.941406 C 7.3939712 11.893006 7.39845 11.801349 7.40625 11.662109 L 7.4042969 11.660156 L 7.40625 11.658203 C 7.41425 11.521143 7.4199813 11.432706 7.4257812 11.384766 C 7.4347813 11.309566 7.4544686 11.202973 7.4804688 11.070312 C 7.5127688 10.905133 7.5203656 10.844592 7.5097656 10.888672 C 7.4760656 11.028162 7.48355 11.006426 7.53125 10.822266 C 7.57835 10.640276 7.581275 10.610412 7.546875 10.732422 C 7.536375 10.769822 7.5657 10.70718 7.625 10.53125 C 7.6685 10.40176 7.69735 10.309434 7.71875 10.257812 C 7.73335 10.222513 7.7700019 10.149543 7.8261719 10.033203 C 7.8865719 9.9083732 7.9350594 9.8122806 7.9746094 9.7441406 C 7.9887094 9.7206406 8.0302225 9.655355 8.1015625 9.546875 C 8.1855625 9.418915 8.2475694 9.3304169 8.2871094 9.2792969 C 8.3175094 9.2395969 8.3730419 9.1765075 8.4511719 9.0859375 C 8.5366719 8.9873375 8.6016406 8.9139744 8.6503906 8.8652344 C 8.6991906 8.8164344 8.7727637 8.7517956 8.8710938 8.6660156 C 8.9610936 8.5872156 9.0249131 8.5325231 9.0644531 8.5019531 C 9.1153531 8.4622531 9.2040714 8.4004564 9.3320312 8.3164062 C 9.4406013 8.2450063 9.5055369 8.2033131 9.5292969 8.1894531 C 9.5973969 8.1499531 9.6954725 8.1014256 9.8203125 8.0410156 C 9.9367225 7.9848156 10.009562 7.9481637 10.044922 7.9335938 C 10.096622 7.9121938 10.188829 7.8814906 10.318359 7.8378906 C 10.494439 7.7785906 10.554948 7.7512187 10.517578 7.7617188 C 10.395658 7.7960187 10.425522 7.7930938 10.607422 7.7460938 C 10.791572 7.6982937 10.813278 7.6909094 10.673828 7.7246094 C 10.629728 7.7353094 10.690789 7.7275125 10.855469 7.6953125 L 10.857422 7.6933594 C 10.988782 7.6675594 11.095212 7.649625 11.169922 7.640625 C 11.217922 7.634625 11.306249 7.6286938 11.443359 7.6210938 L 11.445312 7.6191406 L 11.447266 7.6210938 C 11.586576 7.6130937 11.678113 7.608875 11.726562 7.609375 C 11.801163 7.610115 11.905043 7.6178063 12.039062 7.6289062 C 12.159963 7.6390062 12.241163 7.6444906 12.283203 7.6503906 C 12.354303 7.6603906 12.45654 7.6829906 12.59375 7.7128906 C 12.70997 7.7380906 12.790451 7.7542781 12.837891 7.7675781 C 12.88624 7.7810581 12.962736 7.8088795 13.035156 7.8339844 C 12.983878 7.8064508 12.928328 7.7774452 12.832031 7.7285156 C 12.707721 7.6653556 12.620412 7.6189562 12.570312 7.5976562 C 12.532193 7.5813562 12.453128 7.5537656 12.330078 7.5097656 C 12.207648 7.4659656 12.113269 7.4336625 12.042969 7.4140625 C 11.995529 7.4007625 11.915048 7.384575 11.798828 7.359375 C 11.661618 7.329475 11.559381 7.306875 11.488281 7.296875 C 11.446241 7.290975 11.365041 7.2854906 11.244141 7.2753906 C 11.110121 7.2638906 11.006241 7.2565994 10.931641 7.2558594 z M 11.451172 17.105469 L 11.160156 17.527344 C 11.071791 17.654672 10.950967 17.733183 10.822266 17.789062 C 10.673918 18.33785 10.326719 18.910754 9.9140625 18.990234 L 10.359375 19.291016 C 11.262615 19.776326 12.072742 17.488504 11.513672 17.152344 L 11.451172 17.105469 z M 22.337891 20.201172 L 22.373047 20.251953 L 22.484375 20.289062 C 22.461827 20.274433 22.455051 20.26935 22.423828 20.25 C 22.377431 20.221237 22.362157 20.214648 22.337891 20.201172 z M 20.554688 23.662109 A 2.2972426 2.2972426 0 0 1 20.484375 23.867188 C 20.490103 23.869909 20.507462 23.879021 20.511719 23.880859 C 20.535039 23.891159 20.582697 23.910147 20.654297 23.935547 C 20.753187 23.970547 20.811984 23.989141 20.833984 23.994141 C 20.839802 23.995571 20.893389 24.004285 20.923828 24.009766 C 20.902236 23.993631 20.896053 23.990044 20.861328 23.962891 C 20.787428 23.903891 20.741653 23.865523 20.720703 23.845703 C 20.705103 23.831003 20.667136 23.78995 20.603516 23.71875 C 20.578379 23.691073 20.571552 23.681862 20.554688 23.662109 z "
       transform="translate(384.57143,515.798)"
       id="path4282" />
    <path
       style="fill:#000000;fill-opacity:0.10196079;stroke-width:2;stroke-linecap:round;stroke-linejoin:bevel;stroke-miterlimit:4;stroke-dasharray:none"
       d="M 13.029297 11.314453 C 13.087691 11.377878 13.140485 11.447161 13.183594 11.525391 L 19.126953 22.310547 C 19.451388 22.899305 19.175919 23.668073 18.509766 24.035156 C 18.236893 24.185522 17.947279 24.222632 17.671875 24.199219 C 18.052955 24.613129 18.727048 24.70698 19.304688 24.388672 C 19.970841 24.021588 20.24631 23.252821 19.921875 22.664062 L 13.978516 11.878906 C 13.786864 11.531112 13.426508 11.348016 13.029297 11.314453 z "
       transform="translate(384.57143,515.798)"
       id="rect4284" />
    <path
       style="color:#000000;font-style:normal;font-variant:normal;font-weight:normal;font-stretch:normal;font-size:medium;line-height:normal;font-family:sans-serif;text-indent:0;text-align:start;text-decoration:none;text-decoration-line:none;text-decoration-style:solid;text-decoration-color:#000000;letter-spacing:normal;word-spacing:normal;text-transform:none;direction:ltr;block-progression:tb;writing-mode:lr-tb;baseline-shift:baseline;text-anchor:start;white-space:normal;clip-rule:nonzero;display:inline;overflow:visible;visibility:visible;opacity:1;isolation:auto;mix-blend-mode:normal;color-interpolation:sRGB;color-interpolation-filters:linearRGB;solid-color:#000000;solid-opacity:1;fill:#000000;fill-opacity:0.10196079;fill-rule:evenodd;stroke:none;stroke-width:2;stroke-linecap:butt;stroke-linejoin:miter;stroke-miterlimit:4;stroke-dasharray:none;stroke-dashoffset:0;stroke-opacity:1;color-rendering:auto;image-rendering:auto;shape-rendering:auto;text-rendering:auto;enable-background:accumulate"
       d="M 15.777344 6.3125 C 15.825397 6.3544363 15.885467 6.4026068 15.927734 6.4414062 C 15.914554 6.4293462 15.995604 6.4878019 16.146484 6.6386719 L 16.240234 6.7324219 L 16.253906 6.7539062 C 16.281006 6.7784062 16.260472 6.7509656 16.326172 6.8222656 L 16.394531 6.8984375 L 23.662109 17.736328 C 23.725289 17.764328 23.779009 17.783913 23.849609 17.820312 C 23.902971 17.847852 23.927758 17.865405 23.970703 17.890625 L 16.835938 7.2519531 L 16.767578 7.1757812 C 16.701878 7.1044813 16.722412 7.1319219 16.695312 7.1074219 L 16.681641 7.0859375 L 16.587891 6.9921875 C 16.437011 6.8413175 16.355961 6.7828619 16.369141 6.7949219 C 16.255311 6.6904319 16.121261 6.5737687 15.962891 6.4492188 C 15.888923 6.3910615 15.838753 6.3567737 15.777344 6.3125 z M 11.285156 7.2558594 C 11.236706 7.2553594 11.145169 7.2595781 11.005859 7.2675781 L 11.003906 7.265625 L 11.001953 7.2675781 C 10.864843 7.2751781 10.776516 7.2811094 10.728516 7.2871094 C 10.653806 7.2961094 10.547376 7.3140437 10.416016 7.3398438 L 10.414062 7.3417969 C 10.249422 7.3740969 10.188322 7.3817938 10.232422 7.3710938 C 10.371882 7.3373937 10.350166 7.3447781 10.166016 7.3925781 C 9.9841156 7.4395781 9.9542519 7.4425031 10.076172 7.4082031 C 10.113542 7.3977031 10.053033 7.425075 9.8769531 7.484375 C 9.7474231 7.527975 9.6552156 7.5586781 9.6035156 7.5800781 C 9.5681556 7.5946981 9.4953162 7.6313 9.3789062 7.6875 C 9.2540662 7.74794 9.1559906 7.7964375 9.0878906 7.8359375 C 9.0641306 7.8497975 8.999195 7.8914906 8.890625 7.9628906 C 8.762665 8.0469406 8.6739469 8.1087375 8.6230469 8.1484375 C 8.5835069 8.1790075 8.5196875 8.2337 8.4296875 8.3125 C 8.3313575 8.39828 8.2577844 8.4629187 8.2089844 8.5117188 C 8.1602344 8.5604587 8.0952656 8.6338219 8.0097656 8.7324219 C 7.9316056 8.8229919 7.8761031 8.8860812 7.8457031 8.9257812 C 7.8061631 8.9769012 7.7441563 9.0653994 7.6601562 9.1933594 C 7.5888063 9.3018294 7.5473031 9.367125 7.5332031 9.390625 C 7.4936531 9.458765 7.4451656 9.5548575 7.3847656 9.6796875 C 7.3286456 9.7960275 7.2919437 9.8689969 7.2773438 9.9042969 C 7.2560438 9.9559169 7.2270937 10.048244 7.1835938 10.177734 C 7.1242937 10.353704 7.0949688 10.416306 7.1054688 10.378906 C 7.1398688 10.256856 7.1369438 10.28676 7.0898438 10.46875 C 7.0421437 10.6529 7.0346594 10.674646 7.0683594 10.535156 C 7.0789594 10.491076 7.0713625 10.551617 7.0390625 10.716797 C 7.0130625 10.849457 6.993375 10.95605 6.984375 11.03125 C 6.978575 11.07919 6.9728437 11.167627 6.9648438 11.304688 L 6.9628906 11.306641 L 6.9648438 11.308594 C 6.9571438 11.447834 6.952565 11.539491 6.953125 11.587891 C 6.953925 11.662451 6.9614563 11.766411 6.9726562 11.900391 C 6.9826562 12.021301 6.9881406 12.102531 6.9941406 12.144531 C 7.0041406 12.215621 7.0268406 12.317828 7.0566406 12.455078 C 7.0818406 12.571228 7.0980281 12.651719 7.1113281 12.699219 C 7.1309281 12.769419 7.1651844 12.863848 7.2089844 12.986328 C 7.2529844 13.109368 7.2787219 13.188463 7.2949219 13.226562 C 7.3162419 13.276652 7.3625813 13.363961 7.4257812 13.488281 C 7.4877912 13.610311 7.5290938 13.694641 7.5585938 13.744141 C 7.5865938 13.791201 7.6407438 13.867069 7.7148438 13.974609 C 7.7839437 14.074959 7.8326406 14.147459 7.8691406 14.193359 C 7.9217806 14.260259 7.9965906 14.342706 8.0878906 14.441406 C 8.1445906 14.502806 8.1222781 14.483812 8.1425781 14.507812 C 8.1445781 14.509813 8.1456444 14.510719 8.1464844 14.511719 L 8.2324219 14.597656 C 8.2976219 14.662956 8.2619906 14.629331 8.2753906 14.644531 L 8.7089844 14.990234 C 8.708246 14.988002 8.7277104 15.005137 8.6738281 14.951172 L 8.5878906 14.865234 C 8.5870506 14.864234 8.5859844 14.863328 8.5839844 14.861328 C 8.5636844 14.837328 8.5859969 14.856622 8.5292969 14.794922 C 8.4379969 14.696222 8.3631869 14.613775 8.3105469 14.546875 C 8.2740469 14.500975 8.22534 14.428475 8.15625 14.328125 C 8.08215 14.220585 8.028 14.144716 8 14.097656 C 7.9705 14.048156 7.9291975 13.963827 7.8671875 13.841797 C 7.8039875 13.717477 7.7576481 13.630168 7.7363281 13.580078 C 7.7201281 13.541978 7.6943906 13.462884 7.6503906 13.339844 C 7.6065906 13.217364 7.5723344 13.122934 7.5527344 13.052734 C 7.5394344 13.005234 7.5232469 12.924744 7.4980469 12.808594 C 7.4682469 12.671344 7.4455469 12.569137 7.4355469 12.498047 C 7.4295469 12.456047 7.4240625 12.374816 7.4140625 12.253906 C 7.4028625 12.119926 7.3953313 12.015966 7.3945312 11.941406 C 7.3939712 11.893006 7.39845 11.801349 7.40625 11.662109 L 7.4042969 11.660156 L 7.40625 11.658203 C 7.41425 11.521143 7.4199813 11.432706 7.4257812 11.384766 C 7.4347813 11.309566 7.4544686 11.202973 7.4804688 11.070312 C 7.5127688 10.905133 7.5203656 10.844592 7.5097656 10.888672 C 7.4760656 11.028162 7.48355 11.006426 7.53125 10.822266 C 7.57835 10.640276 7.581275 10.610412 7.546875 10.732422 C 7.536375 10.769822 7.5657 10.70718 7.625 10.53125 C 7.6685 10.40176 7.69735 10.309434 7.71875 10.257812 C 7.73335 10.222513 7.7700019 10.149543 7.8261719 10.033203 C 7.8865719 9.9083732 7.9350594 9.8122806 7.9746094 9.7441406 C 7.9887094 9.7206406 8.0302225 9.655355 8.1015625 9.546875 C 8.1855625 9.418915 8.2475694 9.3304169 8.2871094 9.2792969 C 8.3175094 9.2395969 8.3730419 9.1765075 8.4511719 9.0859375 C 8.5366719 8.9873375 8.6016406 8.9139744 8.6503906 8.8652344 C 8.6991906 8.8164344 8.7727637 8.7517956 8.8710938 8.6660156 C 8.9610936 8.5872156 9.0249131 8.5325231 9.0644531 8.5019531 C 9.1153531 8.4622531 9.2040714 8.4004564 9.3320312 8.3164062 C 9.4406013 8.2450063 9.5055369 8.2033131 9.5292969 8.1894531 C 9.5973969 8.1499531 9.6954725 8.1014256 9.8203125 8.0410156 C 9.9367225 7.9848156 10.009562 7.9481637 10.044922 7.9335938 C 10.096622 7.9121938 10.188829 7.8814906 10.318359 7.8378906 C 10.494439 7.7785906 10.554948 7.7512187 10.517578 7.7617188 C 10.395658 7.7960187 10.425522 7.7930938 10.607422 7.7460938 C 10.791572 7.6982937 10.813278 7.6909094 10.673828 7.7246094 C 10.629728 7.7353094 10.690789 7.7275125 10.855469 7.6953125 L 10.857422 7.6933594 C 10.988782 7.6675594 11.095212 7.649625 11.169922 7.640625 C 11.217922 7.634625 11.306249 7.6286938 11.443359 7.6210938 L 11.445312 7.6191406 L 11.447266 7.6210938 C 11.586576 7.6130937 11.678113 7.608875 11.726562 7.609375 C 11.801163 7.610115 11.905043 7.6178063 12.039062 7.6289062 C 12.159963 7.6390062 12.241163 7.6444906 12.283203 7.6503906 C 12.354303 7.6603906 12.45654 7.6829906 12.59375 7.7128906 C 12.70997 7.7380906 12.790451 7.7542781 12.837891 7.7675781 C 12.908191 7.7871781 13.00257 7.8194812 13.125 7.8632812 C 13.24805 7.9072812 13.327114 7.9348719 13.365234 7.9511719 C 13.415334 7.9724719 13.502643 8.0188613 13.626953 8.0820312 C 13.748973 8.1440314 13.835226 8.1852937 13.884766 8.2148438 C 13.931766 8.2429436 14.005691 8.2969538 14.113281 8.3710938 C 14.120599 8.3761332 14.121886 8.3779843 14.128906 8.3828125 C 14.034871 8.2964314 13.955383 8.2221996 13.890625 8.171875 C 13.844485 8.135645 13.772215 8.0866781 13.671875 8.0175781 C 13.564285 7.9434281 13.490359 7.8894281 13.443359 7.8613281 C 13.393819 7.8317781 13.307567 7.7905156 13.185547 7.7285156 C 13.061237 7.6653556 12.973928 7.6189562 12.923828 7.5976562 C 12.885708 7.5813562 12.806644 7.5537656 12.683594 7.5097656 C 12.561164 7.4659656 12.466784 7.4336625 12.396484 7.4140625 C 12.349044 7.4007625 12.268564 7.384575 12.152344 7.359375 C 12.015134 7.329475 11.912897 7.306875 11.841797 7.296875 C 11.799757 7.290975 11.718556 7.2854906 11.597656 7.2753906 C 11.463636 7.2638906 11.359756 7.2565994 11.285156 7.2558594 z M 9.6894531 15.773438 L 9.4160156 16.166016 C 9.1560256 16.540646 9.2390394 17.06459 9.5996094 17.34375 C 9.673916 17.40128 9.7551576 17.434929 9.8378906 17.462891 C 9.664152 17.177875 9.6583513 16.80638 9.8574219 16.519531 L 10.132812 16.125 L 9.6894531 15.773438 z M 6.8300781 16.855469 L 6.8710938 16.896484 L 6.8925781 16.910156 C 6.9174781 16.936856 6.8894375 16.916222 6.9609375 16.982422 L 7.0371094 17.050781 L 10.359375 19.291016 C 11.262615 19.776326 12.072742 17.488504 11.513672 17.152344 L 11.451172 17.105469 L 11.244141 17.40625 C 11.181655 18.169599 10.578116 19.292197 9.9179688 18.9375 L 6.8300781 16.855469 z M 24.861328 18.53125 C 24.92929 18.592066 25.0105 18.662173 25.111328 18.769531 C 25.229758 18.894881 25.314759 19.004991 25.380859 19.087891 C 25.435239 19.156851 25.516722 19.254575 25.607422 19.390625 C 25.704382 19.536165 25.761981 19.64895 25.800781 19.71875 C 25.853471 19.8138 25.923494 19.940359 25.996094 20.105469 C 26.052494 20.233759 26.090894 20.342634 26.121094 20.427734 C 26.155254 20.523954 26.206153 20.659724 26.251953 20.839844 C 26.297253 21.017574 26.315678 21.152034 26.330078 21.240234 C 26.347878 21.349024 26.368859 21.479116 26.380859 21.634766 C 26.393859 21.809406 26.389672 21.947548 26.388672 22.048828 C 26.389722 21.986298 26.407925 22.082275 26.390625 22.328125 C 26.373125 22.573575 26.355694 22.62132 26.371094 22.46875 L 26.369141 22.466797 C 26.384741 22.313037 26.392228 22.360419 26.361328 22.599609 C 26.329228 22.851719 26.294747 22.936862 26.310547 22.851562 C 26.292647 22.949192 26.271997 23.095783 26.216797 23.289062 L 26.214844 23.287109 C 26.168304 23.450229 26.120803 23.563359 26.095703 23.630859 C 26.058653 23.730439 26.010634 23.871539 25.927734 24.042969 L 25.925781 24.041016 C 25.850951 24.195786 25.788259 24.297716 25.755859 24.353516 C 25.701609 24.446816 25.629801 24.576289 25.519531 24.730469 C 25.421201 24.867659 25.338262 24.958978 25.289062 25.017578 C 25.313723 24.988248 25.266887 25.067513 25.117188 25.226562 C 24.964288 25.388762 24.923978 25.413913 25.017578 25.320312 C 24.903678 25.434202 24.798544 25.521197 24.714844 25.591797 C 24.656324 25.641157 24.565024 25.724066 24.427734 25.822266 C 24.273644 25.932636 24.144081 26.004294 24.050781 26.058594 C 23.995001 26.091014 23.895004 26.153716 23.740234 26.228516 L 23.742188 26.230469 C 23.570797 26.313339 23.427725 26.361437 23.328125 26.398438 C 23.260465 26.423477 23.147505 26.471078 22.984375 26.517578 L 22.986328 26.519531 C 22.793068 26.574731 22.646428 26.595281 22.548828 26.613281 C 22.634208 26.597481 22.549375 26.633416 22.296875 26.666016 C 22.057685 26.696616 22.010272 26.687375 22.164062 26.671875 L 22.167969 26.673828 C 22.320649 26.658428 22.272804 26.678212 22.027344 26.695312 C 21.781844 26.712013 21.685547 26.692056 21.748047 26.691406 C 21.646717 26.692406 21.508654 26.696994 21.333984 26.683594 C 21.178364 26.671694 21.04625 26.652566 20.9375 26.634766 C 20.84933 26.620266 20.714829 26.599888 20.537109 26.554688 C 20.356989 26.508928 20.2212 26.458028 20.125 26.423828 C 20.03995 26.393678 19.932878 26.357181 19.804688 26.300781 C 19.639597 26.228141 19.512969 26.156316 19.417969 26.103516 C 19.348139 26.064856 19.233421 26.007056 19.087891 25.910156 C 19.044177 25.881032 19.026336 25.864553 18.990234 25.837891 C 19.076618 25.913596 19.164852 25.988419 19.226562 26.037109 C 19.295662 26.091309 19.393237 26.173022 19.529297 26.263672 C 19.674827 26.360572 19.789545 26.418371 19.859375 26.457031 C 19.954375 26.509831 20.081004 26.581657 20.246094 26.654297 C 20.374284 26.710697 20.481356 26.747154 20.566406 26.777344 C 20.662606 26.811544 20.798396 26.862413 20.978516 26.908203 C 21.156236 26.953403 21.290736 26.973781 21.378906 26.988281 C 21.487656 27.006081 21.619771 27.025209 21.775391 27.037109 C 21.950061 27.050509 22.088123 27.046222 22.189453 27.044922 C 22.126953 27.045572 22.22325 27.065628 22.46875 27.048828 C 22.71421 27.031728 22.762055 27.011944 22.609375 27.027344 L 22.605469 27.025391 C 22.451679 27.040891 22.499091 27.050031 22.738281 27.019531 C 22.990781 26.986931 23.075614 26.950997 22.990234 26.966797 C 23.087834 26.948797 23.234474 26.928247 23.427734 26.873047 L 23.425781 26.871094 C 23.588911 26.824594 23.701871 26.776973 23.769531 26.751953 C 23.869131 26.714953 24.012204 26.666864 24.183594 26.583984 L 24.181641 26.582031 C 24.336411 26.507231 24.436407 26.444529 24.492188 26.412109 C 24.585487 26.357809 24.715051 26.286151 24.869141 26.175781 C 25.006431 26.077581 25.09773 25.994673 25.15625 25.945312 C 25.23995 25.874712 25.345084 25.787718 25.458984 25.673828 C 25.365384 25.767428 25.405634 25.742378 25.558594 25.580078 C 25.708294 25.421028 25.755129 25.341764 25.730469 25.371094 C 25.779669 25.312494 25.862607 25.221174 25.960938 25.083984 C 26.071207 24.929804 26.143016 24.800331 26.197266 24.707031 C 26.229666 24.651231 26.292388 24.549301 26.367188 24.394531 L 26.369141 24.396484 C 26.452041 24.225054 26.500059 24.083955 26.537109 23.984375 C 26.562209 23.916875 26.60974 23.803745 26.65625 23.640625 L 26.658203 23.642578 C 26.713403 23.449298 26.733953 23.302708 26.751953 23.205078 C 26.736153 23.290378 26.770634 23.205235 26.802734 22.953125 C 26.833634 22.713935 26.826347 22.666553 26.810547 22.820312 L 26.8125 22.822266 C 26.7971 22.974836 26.814931 22.927091 26.832031 22.681641 C 26.849331 22.435791 26.831078 22.339814 26.830078 22.402344 C 26.831078 22.301064 26.835266 22.162921 26.822266 21.988281 C 26.810266 21.832631 26.789284 21.70254 26.771484 21.59375 C 26.757084 21.50555 26.738659 21.371089 26.693359 21.193359 C 26.647559 21.013239 26.59669 20.87747 26.5625 20.78125 C 26.5323 20.69615 26.49388 20.587274 26.4375 20.458984 C 26.3649 20.293874 26.294878 20.167316 26.242188 20.072266 C 26.203388 20.002466 26.145758 19.889681 26.048828 19.744141 C 25.958128 19.608091 25.876646 19.510366 25.822266 19.441406 C 25.756166 19.358506 25.671164 19.248397 25.552734 19.123047 C 25.437394 19.000237 25.338438 18.912989 25.267578 18.849609 C 25.193678 18.783209 25.098173 18.700282 24.976562 18.607422 C 24.932087 18.573686 24.902331 18.559531 24.861328 18.53125 z M 22.195312 19.988281 L 22.373047 20.251953 L 22.798828 20.396484 C 22.697268 20.361984 22.724084 20.374259 22.896484 20.443359 L 22.898438 20.445312 C 22.983738 20.479412 23.045298 20.505438 23.080078 20.523438 C 23.095836 20.531062 23.14133 20.557912 23.197266 20.591797 C 23.195729 20.59015 23.190796 20.583456 23.189453 20.582031 C 23.174283 20.566861 23.1337 20.528544 23.0625 20.464844 C 23.0005 20.410364 22.9612 20.373569 22.9375 20.355469 C 22.91151 20.335799 22.860444 20.3015 22.777344 20.25 C 22.702174 20.2034 22.657272 20.178922 22.638672 20.169922 C 22.603892 20.151922 22.542331 20.125897 22.457031 20.091797 L 22.455078 20.089844 C 22.282778 20.020744 22.255862 20.008469 22.357422 20.042969 L 22.195312 19.988281 z M 20.554688 23.662109 A 2.2972426 2.2972426 0 0 1 20.541016 23.701172 C 20.542714 23.702336 20.551447 23.708137 20.552734 23.708984 C 20.557377 23.712163 20.606406 23.740732 20.642578 23.761719 C 20.626866 23.744455 20.624898 23.74268 20.603516 23.71875 C 20.578379 23.691073 20.571552 23.681862 20.554688 23.662109 z "
       transform="translate(384.57143,515.798)"
       id="path4292" />
    <path
       style="fill:#000000;fill-opacity:0.10196079;stroke-width:2;stroke-linecap:round;stroke-linejoin:bevel;stroke-miterlimit:4;stroke-dasharray:none"
       d="M 13.472656 11.435547 C 13.493708 11.465947 13.518924 11.492389 13.537109 11.525391 L 19.480469 22.310547 C 19.804904 22.899305 19.529435 23.668073 18.863281 24.035156 C 18.432518 24.272528 17.959204 24.260418 17.582031 24.078125 C 17.936547 24.590062 18.675874 24.735179 19.304688 24.388672 C 19.970841 24.021588 20.24631 23.252821 19.921875 22.664062 L 13.978516 11.878906 C 13.863874 11.670864 13.678762 11.535161 13.472656 11.435547 z "
       transform="translate(384.57143,515.798)"
       id="rect4294" />
  </g>
</svg>
